<svg xmlns="http://www.w3.org/2000/svg" width="280.6" height="314.519" viewBox="0 0 280.6 314.519">
  <g id="Layer_2_1_" transform="translate(-32.6 -26.3)">
    <path id="Trazado_3" data-name="Trazado 3" d="M98,271.6a171.274,171.274,0,0,1,23.8-27.9" fill="none" stroke="#fff" stroke-miterlimit="10" stroke-width="6"/>
    <path id="Trazado_4" data-name="Trazado 4" d="M76.2,246.1a104.684,104.684,0,0,1,33.3,9.3" fill="none" stroke="#fff" stroke-miterlimit="10" stroke-width="6"/>
    <path id="Trazado_5" data-name="Trazado 5" d="M241,225.9c5.3-.5,10.7-.8,16.2-.8a160.953,160.953,0,0,1,25,1.9" fill="none" stroke="#fff" stroke-miterlimit="10" stroke-width="6"/>
    <path id="Trazado_6" data-name="Trazado 6" d="M128.8,291A134.28,134.28,0,0,1,165,253.6" fill="none" stroke="#fff" stroke-miterlimit="10" stroke-width="6"/>
    <path id="Trazado_7" data-name="Trazado 7" d="M172.7,300.4C191,276.6,222,261,257.2,261c1.4,0,2.8,0,4.2.1" fill="none" stroke="#fff" stroke-miterlimit="10" stroke-width="6"/>
    <path id="Trazado_8" data-name="Trazado 8" d="M151.5,118c10-6.2,14.9-11.5,25.6-8.7s28.8,4.6,39,4.2c9.8-.3,15.2,14.9,15.6,16.1,2.5.4,5,1.5,10.1,4.7,8.9,5.6,27.2,1,36.4,1.9,2.3.2,4.5.4,6.5.5a118.69,118.69,0,0,0-218.9-2.8c8.4-.3,20.7-.7,31.2-.9C115.1,132.7,141.5,124.2,151.5,118Z" fill="none" stroke="#fff" stroke-miterlimit="10" stroke-width="6"/>
    <path id="Trazado_9" data-name="Trazado 9" d="M59.6,209.8c7-.1,18.7-.1,25.2-.2,10.2-.3,34,12.1,34,12.1m165.9-85c-2-.1-4.2-.3-6.5-.5-9.2-.9-27.5,3.7-36.4-1.9-5.1-3.2-7.6-4.2-10.1-4.7v0c-1.9-.3-3.7-.3-6.5-.6-6.5-.7-13.3-3-22.7-7.2s-11.7-4.6-16.1-4.2-20.6,3.6-25.2,4.6-6.8.5-10.7,11a42.394,42.394,0,0,1-12.9,17.5c-1.2,1-6.6,7.7,1.5,11.2s20.3-2.2,24.1-8.2,3.3-4.8,6.4-9.2-1.9-8.9-1.9-8.9,5,4.6,1.9,8.9a67.2,67.2,0,0,0,12.6-1.2c14.6-1.1,21.8,7.2,27.1,11.8s8,9.9,16.6,16.5,19.5,20.4,26.3,30.3,7.1,16.2,3.1,19.9-8.1,2.5-13.8.2-18.9-17.6-26-22.9-13.2-10.7-13-16c-.3,5.3,5.9,10.7,13,16s20.3,20.5,26,22.9,9.8,3.5,13.8-.2,3.8-10.1-3.1-19.9-17.8-23.6-26.3-30.3-11.3-12-16.6-16.5-12.4-12.9-27.1-11.8a65.642,65.642,0,0,1-12.6,1.2c-3.1,4.4-2.7,3.1-6.4,9.2s-15.9,11.7-24.1,8.2-2.8-10.2-1.5-11.2a42.166,42.166,0,0,0,12.9-17.5c4-10.5,6.2-10,10.7-11s20.8-4.2,25.2-4.6,6.7,0,16.1,4.2,16.1,6.4,22.7,7.2c2.8.3,4.6.3,6.5.6-.4-1.2-5.8-16.4-15.6-16.1-10.2.3-28.4-1.5-39-4.2s-15.6,2.5-25.6,8.7S115.1,132.7,97,133c-10.5.2-22.8.6-31.2.9m16,85.9c1.6,7.3,14.4,5.4,18.7,3.4a94.486,94.486,0,0,1,12.6-4.5,94.485,94.485,0,0,0-12.6,4.5c-4.2,1.9-17.1,3.9-18.7-3.4a8.557,8.557,0,0,1,3.4-8.9.668.668,0,0,0,.1-1,.713.713,0,0,0-.6-.3c-7.2,0-19.1.1-25.2.2a118.621,118.621,0,0,0,228.6,5.6l-30.5-1.6m30.5,1.6h0M124.8,242.7c-7.4,1.1-10.1-8.5-10.1-8.5-.3-6.5,1.9-7.7,4.9-13.9s6.3-9.9,11.7-9,6.7,7.8,5.9,13.3S132.2,241.6,124.8,242.7Zm42.8-1.7c.3-5.2-.7-13.2-8.8-14.5,8.1,1.2,9,9.3,8.8,14.5a114.644,114.644,0,0,0,10.9,5.9h0c4,1.9,8.3,3.4,11.2,3.4,7-.1,9.7.3,11.8-.8,2.2-1.1,3.1-1.7,3.9-6.2-.8,4.5-1.7,5.1-3.9,6.2h0c-2.2,1.1-4.8.7-11.8.8-2.9,0-7.2-1.5-11.2-3.4,0,0-6.5,6-9.4,6.5s-4.7-1.8-10.1-.2c-4.9,1.5-10.2-2.2-11.2-3-1.6,2.2-4.4,2.2-9.8.4-6.9-2.4-6.7-12.2-6.7-12.2s-.2,9.7,6.7,12.2c5.4,1.9,8.2,1.8,9.8-.4m0,0a7.449,7.449,0,0,0,1.1-2.4c1-3.4,1-4.7,2.1-6.6,2.5-4.3,9.4-11.5,7.4-18.6-2.4-8.9-8.1-7.7-11.6-6.2s-8.7,7.9-11.5,14.7c2.8-6.9,8-13.2,11.5-14.7s9.2-2.6,11.6,6.2c1.9,7.1-5,14.2-7.4,18.6-1.1,1.9-1.2,3.2-2.1,6.6a6.591,6.591,0,0,1-1.1,2.4c1,.8,6.3,4.5,11.2,3,5.4-1.6,7.2.6,10.1.2s9.4-6.5,9.4-6.5a114.647,114.647,0,0,1-10.9-5.9,28.681,28.681,0,0,1-.5,4.1,28.681,28.681,0,0,0,.5-4.1m43.2,4.6c-4.5-.2-19.5-12.6-25.9-17.5s-9.2-12.8-9.2-12.8,2.9,7.8,9.2,12.8,21.4,17.3,25.9,17.5,12.8,1.3,13.2-11.9C223.6,246.9,215.3,245.8,210.8,245.6Zm17.1-11.2c-10.9-.6-22.6-14.6-31.3-23.1s-9.4-9.4-9.4-9.4.7.8,9.4,9.4,20.4,22.5,31.3,23.1,13.4-7.1,11.8-13.3c1.6,6.2-.8,13.9-11.8,13.3Z" fill="none" stroke="#fff" stroke-miterlimit="10" stroke-width="6"/>
    <path id="Trazado_10" data-name="Trazado 10" d="M131.3,211.3c-5.4-.9-8.7,2.7-11.7,9s-5.2,7.4-4.9,13.9c0,0,2.8,9.6,10.1,8.5s11.6-12.6,12.4-18.1S136.6,212.2,131.3,211.3Z" fill="none" stroke="#fff" stroke-miterlimit="10" stroke-width="6"/>
    <path id="Trazado_11" data-name="Trazado 11" d="M90.7,309.9a6.179,6.179,0,0,1-3.2,2.3,7.037,7.037,0,0,1-3.8.1,9.1,9.1,0,0,1-3.8-1.9l-10.3-7.8,16.3-21.5L97,289.5a6.293,6.293,0,0,1,2,2.8,6.171,6.171,0,0,1,.1,3.3,7.269,7.269,0,0,1-1.4,3.1,8.855,8.855,0,0,1-3,2.4,6.222,6.222,0,0,1-3.8.3,7.065,7.065,0,0,1,1.4,4.2A6.718,6.718,0,0,1,90.7,309.9Zm-3-3.2a6.633,6.633,0,0,0,.9-1.9,4.441,4.441,0,0,0-.1-2,2.76,2.76,0,0,0-1.2-1.6l-7.1-5.4-5,6.6,6.9,5.2a4.958,4.958,0,0,0,2,.8,4.433,4.433,0,0,0,2-.3,7.313,7.313,0,0,0,1.6-1.4Zm-.7-20L82.2,293l6.2,4.7a3.115,3.115,0,0,0,1.8.7,3.079,3.079,0,0,0,1.9-.3,5.087,5.087,0,0,0,1.6-1.3,4.751,4.751,0,0,0,.9-1.9,4.084,4.084,0,0,0-.1-1.9,3.269,3.269,0,0,0-1.1-1.5Z" fill="#fff"/>
    <path id="Trazado_12" data-name="Trazado 12" d="M112.7,299.1l3.6,1.8-2.7,28.8-4-2,.9-7.7-9.7-4.8-5.7,5.4-4-2ZM111,316.7l1.5-12.5-9.1,8.7Z" fill="#fff"/>
    <path id="Trazado_13" data-name="Trazado 13" d="M120,331.7l8.8-25.5,4,1.4L124,333.1Z" fill="#fff"/>
    <path id="Trazado_14" data-name="Trazado 14" d="M139.9,309.8l5.2,11.9,9.4-8.9,4.6.9-12.3,11.5,6.6,14.9-4.6-1-5-11.4-9,8.6-4.6-1,11.9-11.1-6.8-15.4Z" fill="#fff"/>
    <path id="Trazado_15" data-name="Trazado 15" d="M169.4,327.6a14.044,14.044,0,0,1,3-9.3,11.623,11.623,0,0,1,4-3.3,11.431,11.431,0,0,1,5.4-1.4,11.144,11.144,0,0,1,6.4,1.4,10.757,10.757,0,0,1,4.2,4l-3.2,2.4a8.181,8.181,0,0,0-2-2.5,6.2,6.2,0,0,0-2.6-1.2,9.5,9.5,0,0,0-6.3.8,8.483,8.483,0,0,0-2.6,2.4,10.362,10.362,0,0,0-1.5,3.2,13.425,13.425,0,0,0-.4,3.5,11.669,11.669,0,0,0,.8,3.7,12.651,12.651,0,0,0,2,3.1,7.217,7.217,0,0,0,2.9,2,7.024,7.024,0,0,0,3.5.6,13.1,13.1,0,0,0,2.7-.6,10.374,10.374,0,0,0,2.5-1.5,6.765,6.765,0,0,0,1.8-2.6l3.6,1.8a7.865,7.865,0,0,1-2.4,3.5,10.9,10.9,0,0,1-3.9,2.3,12.713,12.713,0,0,1-4.3.9,12.111,12.111,0,0,1-5.3-.9,12.456,12.456,0,0,1-4.2-3,14.636,14.636,0,0,1-2.9-4.4A18.518,18.518,0,0,1,169.4,327.6Z" fill="#fff"/>
    <path id="Trazado_16" data-name="Trazado 16" d="M203.2,310.8l3.9-.9,16.5,23.8-4.4,1-4.3-6.5-10.5,2.5-.9,7.8-4.4,1Zm9.9,14.6-6.9-10.5-1.4,12.5Z" fill="#fff"/>
    <path id="Trazado_17" data-name="Trazado 17" d="M252.2,320.8l-8.4-17.3-.7,16.6-2.3,1.1-13.6-9.6,8.4,17.3-3.8,1.9L220,306.5l4.1-2,15.2,10.9.8-18.7,4.1-2L256,318.9Z" fill="#fff"/>
    <path id="Trazado_18" data-name="Trazado 18" d="M265.3,312.6l-16.6-21.3,8.9-7a8.172,8.172,0,0,1,9.5-.4,9.8,9.8,0,0,1,2.4,2.1,9.694,9.694,0,0,1,1.8,4,8.964,8.964,0,0,1-.2,4.3,7.8,7.8,0,0,1-2.6,3.6l-5.8,4.5,5.8,7.4Zm-4.7-13,5.5-4.3a3.8,3.8,0,0,0,1.3-1.8,4.483,4.483,0,0,0,0-2.3,5.45,5.45,0,0,0-1.2-2.4,5.845,5.845,0,0,0-2.1-1.7,4.5,4.5,0,0,0-2.3-.4,3.553,3.553,0,0,0-2,.8l-5.4,4.2Z" fill="#fff"/>
    <path id="Trazado_19" data-name="Trazado 19" d="M60.8,107.4a6.072,6.072,0,0,1,2.8,2.9,7.794,7.794,0,0,1,.5,4,12.112,12.112,0,0,1-1.5,4.4l-6.2,11.6L32.6,117.6l7-13.2a4.878,4.878,0,0,1,2.5-2.4,7.535,7.535,0,0,1,3.3-.7,9.538,9.538,0,0,1,3.3.9,6.757,6.757,0,0,1,2.7,2.6,6.154,6.154,0,0,1,.9,3.8,7.123,7.123,0,0,1,3.9-2.1A7.372,7.372,0,0,1,60.8,107.4Zm-20.6,7.3,4.9,2.6,2.9-5.4a2.768,2.768,0,0,0,.3-1.3,2.01,2.01,0,0,0-.4-1.3,3.179,3.179,0,0,0-1.2-1.1,2.822,2.822,0,0,0-1.5-.4,2.663,2.663,0,0,0-1.2.3,1.962,1.962,0,0,0-.9.9Zm16.5-2.2a2.822,2.822,0,0,0-1.5-.4,3.529,3.529,0,0,0-1.4.3,2.41,2.41,0,0,0-1,1l-3.4,6.3,5.2,2.8,3.2-6.1a2.232,2.232,0,0,0,.3-1.4,2.566,2.566,0,0,0-1.4-2.5Z" fill="#fff"/>
    <path id="Trazado_20" data-name="Trazado 20" d="M51.3,87l4.2-5.2,26.8,9.7-4,5L72.5,94,67,100.9l3.6,5.2-4,5Zm17,5.4-10.1-4,6.1,9Z" fill="#fff"/>
    <path id="Trazado_21" data-name="Trazado 21" d="M78.4,74.6l9.8,11.9-4.8,4L66.2,69.7,70,66.5l19.8,4.2L79.6,58.5l4.8-4,17.2,20.8-3.9,3.2Z" fill="#fff"/>
    <path id="Trazado_22" data-name="Trazado 22" d="M97.2,61.8a13.588,13.588,0,0,1-1.5-4.7A14.637,14.637,0,0,1,96,52a12.141,12.141,0,0,1,2.3-4.7,13.553,13.553,0,0,1,4.5-3.7,12.661,12.661,0,0,1,6.6-1.6,11.6,11.6,0,0,1,5.7,1.8L112.4,49a5.941,5.941,0,0,0-5-1.2,8.264,8.264,0,0,0-2.2.8,6.111,6.111,0,0,0-2.4,2.1,6.437,6.437,0,0,0-1.1,2.7,9.558,9.558,0,0,0,1.1,5.7,9.2,9.2,0,0,0,1.9,2.5,8.518,8.518,0,0,0,2.5,1.7,5.568,5.568,0,0,0,2.8.5,6.026,6.026,0,0,0,2.9-.8,13.3,13.3,0,0,0,1.9-1.4,7.706,7.706,0,0,0,1.4-2.1,5.7,5.7,0,0,0,.4-2.6l5.9.3a8.681,8.681,0,0,1-.7,4.2,14.24,14.24,0,0,1-2.6,3.8,17.154,17.154,0,0,1-3.7,2.8,12.424,12.424,0,0,1-5.3,1.5,13.636,13.636,0,0,1-9.7-3.5A16.071,16.071,0,0,1,97.2,61.8Z" fill="#fff"/>
    <path id="Trazado_23" data-name="Trazado 23" d="M135.1,59l-5.9-26.3,9.8-2.2a14,14,0,0,1,7.6.1,12.186,12.186,0,0,1,5.5,3.8,14.729,14.729,0,0,1,3,6.3A13.911,13.911,0,0,1,155,48a10.9,10.9,0,0,1-3.6,5.6,14.563,14.563,0,0,1-6.6,3.2ZM149,42.1a11.31,11.31,0,0,0-1.7-3.9,6.539,6.539,0,0,0-3-2.2,7.778,7.778,0,0,0-4-.2l-3.7.8,3.5,15.7,3.8-.8a6.71,6.71,0,0,0,3.5-1.9,6.188,6.188,0,0,0,1.7-3.3A11.864,11.864,0,0,0,149,42.1Z" fill="#fff"/>
    <path id="Trazado_24" data-name="Trazado 24" d="M179.4,47.8l.2,5.5-18.9.6-.9-27,18.6-.6.2,5.5-12.4.4.2,5.2,10.6-.3.2,5.1-10.6.4.2,5.7Z" fill="#fff"/>
    <path id="Trazado_25" data-name="Trazado 25" d="M214.1,37.1,206,35.5l-4.2,21.1-6.1-1.2,4.2-21.1-8.1-1.6,1.1-5.4,22.2,4.4Z" fill="#fff"/>
    <path id="Trazado_26" data-name="Trazado 26" d="M231.4,60.7l-2,5.1L211.8,59l9.8-25.2L239,40.5l-2,5.1-11.6-4.5-1.9,4.8,9.9,3.8-1.8,4.7-9.9-3.8-2.1,5.3Z" fill="#fff"/>
    <path id="Trazado_27" data-name="Trazado 27" d="M231.8,67,246,44l10.4,6.4a8.83,8.83,0,0,1,2.6,2.5,9.816,9.816,0,0,1,1.3,3.2,10.278,10.278,0,0,1,0,3.5,9.58,9.58,0,0,1-1.2,3.2,12.064,12.064,0,0,1-2.1,2.4,7.2,7.2,0,0,1-2.7,1.5,7.774,7.774,0,0,1-3,.4L251,78.8l-5.9-3.6.1-10.1-3.6-2.2L237,70.3Zm12.7-8.8,4.9,3a1.735,1.735,0,0,0,1.4.3,3.946,3.946,0,0,0,1.5-.6,4.708,4.708,0,0,0,1.3-1.5,3.292,3.292,0,0,0,.6-1.9,3.416,3.416,0,0,0-.3-1.7,2.445,2.445,0,0,0-.9-1.1l-4.7-2.9Z" fill="#fff"/>
    <path id="Trazado_28" data-name="Trazado 28" d="M252.3,80l18.2-19.9,9,8.2a8.642,8.642,0,0,1,2.1,2.9,7.89,7.89,0,0,1,.6,3.4,9.738,9.738,0,0,1-.6,3.4,7.89,7.89,0,0,1-1.8,2.9,9.579,9.579,0,0,1-2.5,2,9.979,9.979,0,0,1-2.9,1,10.751,10.751,0,0,1-3.1-.1l-2.4,11.4-5.1-4.6,2-9.9-3.1-2.8-5.9,6.4Zm14.2-6.2,4.2,3.8a3.1,3.1,0,0,0,1.3.6,4.145,4.145,0,0,0,1.6-.3,6.1,6.1,0,0,0,1.6-1.2,4.248,4.248,0,0,0,1-1.7,2.479,2.479,0,0,0,0-1.7,2.389,2.389,0,0,0-.7-1.3l-4.1-3.7Z" fill="#fff"/>
    <path id="Trazado_29" data-name="Trazado 29" d="M285.8,108.5l-4.4,3.3L270,96.8l21.5-16.4,11.3,14.8-4.4,3.3-7.5-9.8-4.2,3.2,6.5,8.5-4,3.1L282.7,95l-4.6,3.5Z" fill="#fff"/>
    <path id="Trazado_30" data-name="Trazado 30" d="M307.2,119.8a3.553,3.553,0,0,0,.2-1v-1.9l-.3-2.4a8.955,8.955,0,0,0-.8-2.3,4.213,4.213,0,0,0-1.6-1.9,2.118,2.118,0,0,0-1.9,0,1.7,1.7,0,0,0-1,1.3,4.972,4.972,0,0,0,.1,2.1c.2.9.4,1.9.6,3.2a18.934,18.934,0,0,1,.6,4.7,7.786,7.786,0,0,1-.9,3.7,6.283,6.283,0,0,1-3.1,2.7,8.61,8.61,0,0,1-3.8,1,7.639,7.639,0,0,1-3.3-.8,9.658,9.658,0,0,1-2.7-2.2,21.125,21.125,0,0,1-2.1-3.1,25.016,25.016,0,0,1-1.5-3.8,17.734,17.734,0,0,1-.8-4,25.386,25.386,0,0,1,0-3.9l6.1-.1a5.019,5.019,0,0,0-.2,1.2v2.3a28.862,28.862,0,0,0,.4,2.9,14.192,14.192,0,0,0,1,2.9,4.469,4.469,0,0,0,1.6,2,2.007,2.007,0,0,0,1.7.1,1.751,1.751,0,0,0,1-1.5,7.067,7.067,0,0,0-.2-2.5c-.2-1-.4-2.2-.6-3.5a21.835,21.835,0,0,1-.4-4.4,6.2,6.2,0,0,1,.9-3.2,6.672,6.672,0,0,1,2.7-2.3,8.366,8.366,0,0,1,4.9-1,8.643,8.643,0,0,1,4.3,1.8,13.37,13.37,0,0,1,3.2,3.9,14.761,14.761,0,0,1,1.3,3.5,19.679,19.679,0,0,1,.5,3.5c.1,1.1.1,2.1.1,3.1Z" fill="#fff"/>
  </g>
</svg>
