<svg xmlns="http://www.w3.org/2000/svg" width="391.438" height="286.351" viewBox="0 0 391.438 286.351">
  <g id="Capa_6" transform="translate(-204.496 -204.515)">
    <g id="Group_370" data-name="Group 370" transform="translate(204.496 204.515)">
      <g id="Group_292" data-name="Group 292" transform="translate(359.634 87.975)">
        <path id="Path_478" data-name="Path 478" d="M1253.8,461.2" transform="translate(-1253.8 -461.2)" fill="none" stroke="#a0a607" stroke-linecap="round" stroke-linejoin="round" stroke-miterlimit="10" stroke-width="7.959"/>
      </g>
      <g id="Group_343" data-name="Group 343" transform="translate(108.34 124.572)">
        <g id="Group_320" data-name="Group 320" transform="translate(8.568 77.74)">
          <g id="Group_319" data-name="Group 319">
            <g id="Group_293" data-name="Group 293" transform="translate(0 0.411)">
              <path id="Path_479" data-name="Path 479" d="M552.42,803.232c-.137.069-.308.171-.548.274a5.042,5.042,0,0,1-.857.274,5.782,5.782,0,0,1-1.131.1,4.859,4.859,0,0,1-1.782-.308,3.892,3.892,0,0,1-1.337-.857,3.81,3.81,0,0,1-.857-1.234,3.55,3.55,0,0,1-.308-1.474,4.089,4.089,0,0,1,.308-1.611,3.61,3.61,0,0,1,.857-1.268,4.388,4.388,0,0,1,1.337-.823,4.438,4.438,0,0,1,1.679-.308,4.558,4.558,0,0,1,1.44.206,5.214,5.214,0,0,1,1.062.445l-.548,1.165a4.568,4.568,0,0,0-.823-.411,2.842,2.842,0,0,0-1.1-.206,2.793,2.793,0,0,0-1.062.206,2.68,2.68,0,0,0-.891.583,3.033,3.033,0,0,0-.617.857,2.725,2.725,0,0,0-.034,2.159,2.605,2.605,0,0,0,1.508,1.44,3.259,3.259,0,0,0,1.2.206,3.57,3.57,0,0,0,1.131-.171,4.124,4.124,0,0,0,.788-.411Z" transform="translate(-545.6 -796)" fill="#fff"/>
            </g>
            <g id="Group_294" data-name="Group 294" transform="translate(7.951 3.564)">
              <path id="Path_480" data-name="Path 480" d="M568.8,807.6a2.238,2.238,0,0,1,.343-1.234,2.42,2.42,0,0,1,.994-.857,3.513,3.513,0,0,1,2.879,0,2.325,2.325,0,0,1,.96.857,2.392,2.392,0,0,1,0,2.468,2.325,2.325,0,0,1-.96.857,3.179,3.179,0,0,1-1.439.308,3.716,3.716,0,0,1-1.44-.274,2.621,2.621,0,0,1-.994-.823A2.727,2.727,0,0,1,568.8,807.6Zm1.337,0a1.593,1.593,0,0,0,.171.72,1.476,1.476,0,0,0,.514.514,1.249,1.249,0,0,0,.72.171,1.746,1.746,0,0,0,.754-.171,1.836,1.836,0,0,0,.514-.514,1.6,1.6,0,0,0,0-1.44,1.236,1.236,0,0,0-.514-.514,1.437,1.437,0,0,0-.754-.171,1.267,1.267,0,0,0-.72.206,1.836,1.836,0,0,0-.514.514A1.2,1.2,0,0,0,570.137,807.6Z" transform="translate(-568.8 -805.2)" fill="#fff"/>
            </g>
            <g id="Group_295" data-name="Group 295" transform="translate(14.841 3.564)">
              <path id="Path_481" data-name="Path 481" d="M590.065,805.406l.1.96-.034-.137a1.99,1.99,0,0,1,.754-.754,2.3,2.3,0,0,1,1.2-.274,1.9,1.9,0,0,1,1.165.377,1.309,1.309,0,0,1,.48.96v3.325h-1.3v-2.879a.724.724,0,0,0-.206-.548.838.838,0,0,0-.617-.206,1.267,1.267,0,0,0-.72.206,1.706,1.706,0,0,0-.514.583,2.245,2.245,0,0,0-.171.857v1.988h-1.3v-4.456Z" transform="translate(-588.9 -805.2)" fill="#fff"/>
            </g>
            <g id="Group_296" data-name="Group 296" transform="translate(21.044 3.565)">
              <path id="Path_482" data-name="Path 482" d="M608.919,809.964a3.63,3.63,0,0,1-1.062-.171,2.384,2.384,0,0,1-.857-.514l.548-.651a2.284,2.284,0,0,0,.651.411,1.345,1.345,0,0,0,.617.137,1.67,1.67,0,0,0,.411-.034.48.48,0,0,0,.377-.446.476.476,0,0,0-.171-.343,1.156,1.156,0,0,0-.411-.206c-.171-.068-.343-.1-.548-.171a2.15,2.15,0,0,1-.96-.548,1.144,1.144,0,0,1-.308-.788,1.323,1.323,0,0,1,.206-.685,1.383,1.383,0,0,1,.617-.548,2.289,2.289,0,0,1,1.028-.206,3.915,3.915,0,0,1,.96.1,2.384,2.384,0,0,1,.788.377l-.514.72a.943.943,0,0,0-.514-.274,1.691,1.691,0,0,0-.514-.1,1.286,1.286,0,0,0-.377.034.747.747,0,0,0-.274.171.311.311,0,0,0-.1.24.476.476,0,0,0,.171.343,1.345,1.345,0,0,0,.446.206,4.878,4.878,0,0,1,.548.171,2.189,2.189,0,0,1,.651.274,1.283,1.283,0,0,1,.446.411,1.062,1.062,0,0,1,.171.583,1.233,1.233,0,0,1-.24.754,2.147,2.147,0,0,1-.651.583A3.569,3.569,0,0,1,608.919,809.964Z" transform="translate(-607 -805.2)" fill="#fff"/>
            </g>
            <g id="Group_297" data-name="Group 297" transform="translate(25.979 3.599)">
              <path id="Path_483" data-name="Path 483" d="M624.21,810.064a3.381,3.381,0,0,1-1.508-.308,2.325,2.325,0,0,1-.96-.857,2.161,2.161,0,0,1-.343-1.234,2.077,2.077,0,0,1,.377-1.2,2.316,2.316,0,0,1,1.028-.857,3.242,3.242,0,0,1,1.405-.308,2.48,2.48,0,0,1,1.679.548,2.669,2.669,0,0,1,.891,1.508l-3.976,1.2-.308-.651,3.119-.994-.274.137a1.067,1.067,0,0,0-.411-.548,1.346,1.346,0,0,0-.788-.24,1.592,1.592,0,0,0-.72.171,1.374,1.374,0,0,0-.514.48,1.594,1.594,0,0,0-.171.72,1.3,1.3,0,0,0,.206.754,1.587,1.587,0,0,0,.548.514,1.869,1.869,0,0,0,.754.171,1.6,1.6,0,0,0,.583-.1,3.457,3.457,0,0,0,.514-.24l.583.891a3.734,3.734,0,0,1-.857.343A3.89,3.89,0,0,1,624.21,810.064Z" transform="translate(-621.4 -805.3)" fill="#fff"/>
            </g>
            <g id="Group_298" data-name="Group 298" transform="translate(32.628 0)">
              <path id="Path_484" data-name="Path 484" d="M640.8,794.8h1.3v8.226h-1.3Z" transform="translate(-640.8 -794.8)" fill="#fff"/>
            </g>
            <g id="Group_299" data-name="Group 299" transform="translate(35.747 0)">
              <path id="Path_485" data-name="Path 485" d="M649.9,794.8h1.3v8.226h-1.3Z" transform="translate(-649.9 -794.8)" fill="#fff"/>
            </g>
            <g id="Group_300" data-name="Group 300" transform="translate(42.328 0.411)">
              <path id="Path_486" data-name="Path 486" d="M675.92,803.232c-.137.069-.308.171-.548.274a5.042,5.042,0,0,1-.857.274,5.782,5.782,0,0,1-1.131.1,4.859,4.859,0,0,1-1.782-.308,3.892,3.892,0,0,1-1.337-.857,3.81,3.81,0,0,1-.857-1.234,3.55,3.55,0,0,1-.308-1.474,4.089,4.089,0,0,1,.308-1.611,3.61,3.61,0,0,1,.857-1.268,4.388,4.388,0,0,1,1.337-.823,4.438,4.438,0,0,1,1.679-.308,4.558,4.558,0,0,1,1.44.206,5.214,5.214,0,0,1,1.062.445l-.548,1.165a4.568,4.568,0,0,0-.823-.411,2.842,2.842,0,0,0-1.1-.206,2.793,2.793,0,0,0-1.062.206,2.68,2.68,0,0,0-.891.583,3.033,3.033,0,0,0-.617.857,2.725,2.725,0,0,0-.034,2.159,2.605,2.605,0,0,0,1.508,1.44,3.259,3.259,0,0,0,1.2.206,3.57,3.57,0,0,0,1.131-.171,4.124,4.124,0,0,0,.788-.411Z" transform="translate(-669.1 -796)" fill="#fff"/>
            </g>
            <g id="Group_301" data-name="Group 301" transform="translate(50.279 3.564)">
              <path id="Path_487" data-name="Path 487" d="M692.3,807.6a2.238,2.238,0,0,1,.343-1.234,2.42,2.42,0,0,1,.994-.857,3.513,3.513,0,0,1,2.879,0,2.325,2.325,0,0,1,.96.857,2.392,2.392,0,0,1,0,2.468,2.325,2.325,0,0,1-.96.857,3.179,3.179,0,0,1-1.439.308,3.716,3.716,0,0,1-1.44-.274,2.621,2.621,0,0,1-.994-.823A2.727,2.727,0,0,1,692.3,807.6Zm1.337,0a1.593,1.593,0,0,0,.171.72,1.476,1.476,0,0,0,.514.514,1.249,1.249,0,0,0,.72.171,1.746,1.746,0,0,0,.754-.171,1.836,1.836,0,0,0,.514-.514,1.6,1.6,0,0,0,0-1.44,1.236,1.236,0,0,0-.514-.514,1.437,1.437,0,0,0-.754-.171,1.267,1.267,0,0,0-.72.206,1.836,1.836,0,0,0-.514.514A1.2,1.2,0,0,0,693.637,807.6Z" transform="translate(-692.3 -805.2)" fill="#fff"/>
            </g>
            <g id="Group_302" data-name="Group 302" transform="translate(57.168 3.599)">
              <path id="Path_488" data-name="Path 488" d="M713.565,805.471l.1.925-.034-.069a1.991,1.991,0,0,1,.754-.754,2.507,2.507,0,0,1,1.851-.171,1.053,1.053,0,0,1,.514.343.943.943,0,0,1,.274.514l-.069.034a2,2,0,0,1,.788-.72,2.094,2.094,0,0,1,1.028-.274,1.827,1.827,0,0,1,1.165.377,1.275,1.275,0,0,1,.446.96v3.325h-1.268v-2.879a1.437,1.437,0,0,0-.137-.548c-.069-.171-.274-.24-.514-.24a1.076,1.076,0,0,0-.72.24,1.675,1.675,0,0,0-.48.617,2.033,2.033,0,0,0-.171.788v2.022h-1.3v-2.879a1.035,1.035,0,0,0-.171-.548.642.642,0,0,0-.548-.24,1.076,1.076,0,0,0-.72.24,2.134,2.134,0,0,0-.48.617,1.562,1.562,0,0,0-.171.788v2.022h-1.3v-4.456l1.165-.034Z" transform="translate(-712.4 -805.3)" fill="#fff"/>
            </g>
            <g id="Group_303" data-name="Group 303" transform="translate(66.525 3.53)">
              <path id="Path_489" data-name="Path 489" d="M742.2,809.933a3.117,3.117,0,0,1-1.268-.274,2,2,0,0,1-.891-.788,2.529,2.529,0,0,1-.343-1.3,2.238,2.238,0,0,1,.343-1.3,2.484,2.484,0,0,1,.925-.857,2.536,2.536,0,0,1,1.234-.308,1.848,1.848,0,0,1,1.131.274,4.048,4.048,0,0,1,.685.583l-.069.171.137-.823h1.2v4.456h-1.3v-1.1l.137.274a2.526,2.526,0,0,1-.171.206,3.647,3.647,0,0,1-.377.308,2.3,2.3,0,0,1-.583.274A2.656,2.656,0,0,1,742.2,809.933Zm.377-.96a2,2,0,0,0,.651-.1.962.962,0,0,0,.48-.343.943.943,0,0,0,.274-.514v-.96a1.439,1.439,0,0,0-.308-.48,1.292,1.292,0,0,0-.514-.308,2,2,0,0,0-.651-.1,1.868,1.868,0,0,0-.754.171,1.137,1.137,0,0,0-.548.514,1.349,1.349,0,0,0-.206.72,1.267,1.267,0,0,0,.206.72,1.963,1.963,0,0,0,.548.514A1.614,1.614,0,0,0,742.579,808.973Z" transform="translate(-739.7 -805.1)" fill="#fff"/>
            </g>
            <g id="Group_304" data-name="Group 304" transform="translate(73.962 3.564)">
              <path id="Path_490" data-name="Path 490" d="M762.565,805.406l.1,1.268-.034-.171a1.609,1.609,0,0,1,.583-.686,6.148,6.148,0,0,1,.754-.446,2.037,2.037,0,0,1,.651-.171l-.069,1.2a1.727,1.727,0,0,0-.96.171,1.78,1.78,0,0,0-.651.583,1.334,1.334,0,0,0-.24.788v1.919h-1.3v-4.456Z" transform="translate(-761.4 -805.2)" fill="#fff"/>
            </g>
            <g id="Group_305" data-name="Group 305" transform="translate(77.87 3.633)">
              <path id="Path_491" data-name="Path 491" d="M777.29,809.616a2.409,2.409,0,0,1-.788.377,2.957,2.957,0,0,1-.96.137,3.716,3.716,0,0,1-1.439-.274,2.509,2.509,0,0,1-.96-.823,2.127,2.127,0,0,1-.343-1.268,2.3,2.3,0,0,1,.377-1.268,2.469,2.469,0,0,1,.96-.823,3.244,3.244,0,0,1,1.268-.274,3.509,3.509,0,0,1,1.1.171,3.083,3.083,0,0,1,.823.411l-.651.754a2.988,2.988,0,0,0-.48-.274,2.063,2.063,0,0,0-.685-.1,1.711,1.711,0,0,0-.72.171,1.374,1.374,0,0,0-.514.48,1.249,1.249,0,0,0-.171.72,1.236,1.236,0,0,0,.206.685,1.587,1.587,0,0,0,.548.514,1.562,1.562,0,0,0,.788.171,2.662,2.662,0,0,0,.548-.069,1.774,1.774,0,0,0,.446-.206Z" transform="translate(-772.8 -805.4)" fill="#fff"/>
            </g>
            <g id="Group_306" data-name="Group 306" transform="translate(83.251 3.53)">
              <path id="Path_492" data-name="Path 492" d="M791,809.933a3.116,3.116,0,0,1-1.268-.274,2,2,0,0,1-.891-.788,2.529,2.529,0,0,1-.343-1.3,2.237,2.237,0,0,1,.343-1.3,2.483,2.483,0,0,1,.925-.857A2.536,2.536,0,0,1,791,805.1a1.849,1.849,0,0,1,1.131.274,4.048,4.048,0,0,1,.685.583l-.069.171.137-.823h1.2v4.456h-1.3v-1.1l.137.274a2.494,2.494,0,0,1-.171.206,3.654,3.654,0,0,1-.377.308,2.3,2.3,0,0,1-.583.274A1.187,1.187,0,0,1,791,809.933Zm.377-.96a2,2,0,0,0,.651-.1.961.961,0,0,0,.48-.343.942.942,0,0,0,.274-.514v-.96a1.436,1.436,0,0,0-.308-.48,1.292,1.292,0,0,0-.514-.308,2,2,0,0,0-.651-.1,1.869,1.869,0,0,0-.754.171,1.137,1.137,0,0,0-.548.514,1.349,1.349,0,0,0-.206.72,1.267,1.267,0,0,0,.206.72,1.963,1.963,0,0,0,.548.514A1.614,1.614,0,0,0,791.379,808.973Z" transform="translate(-788.5 -805.1)" fill="#fff"/>
            </g>
            <g id="Group_307" data-name="Group 307" transform="translate(90.654 0)">
              <path id="Path_493" data-name="Path 493" d="M810.1,794.8h1.3v8.226h-1.3Z" transform="translate(-810.1 -794.8)" fill="#fff"/>
            </g>
            <g id="Group_308" data-name="Group 308" transform="translate(97.131)">
              <path id="Path_494" data-name="Path 494" d="M831.4,803.163a2.536,2.536,0,0,1-1.234-.308,2.066,2.066,0,0,1-.857-.857,2.573,2.573,0,0,1-.308-1.268,2.127,2.127,0,0,1,.343-1.268,2.676,2.676,0,0,1,.925-.823,3.323,3.323,0,0,1,1.337-.274,3.589,3.589,0,0,1,1.028.171,1.917,1.917,0,0,1,.788.548l-.034.411v-4.7h1.3v8.226h-1.3V802l.137.308a2.68,2.68,0,0,1-.891.583A3.435,3.435,0,0,1,831.4,803.163Zm.411-.994a1.924,1.924,0,0,0,.685-.1,1.053,1.053,0,0,0,.514-.343,1.583,1.583,0,0,0,.308-.514v-.96a1.439,1.439,0,0,0-.308-.48,1.919,1.919,0,0,0-.514-.343,1.519,1.519,0,0,0-.685-.1,1.869,1.869,0,0,0-.754.171,1.138,1.138,0,0,0-.548.514,1.362,1.362,0,0,0,0,1.439,1.963,1.963,0,0,0,.548.514A1.382,1.382,0,0,0,831.81,802.169Z" transform="translate(-829 -794.8)" fill="#fff"/>
            </g>
            <g id="Group_309" data-name="Group 309" transform="translate(104.123 3.599)">
              <path id="Path_495" data-name="Path 495" d="M852.21,810.064a3.38,3.38,0,0,1-1.508-.308,2.325,2.325,0,0,1-.96-.857,2.161,2.161,0,0,1-.343-1.234,2.077,2.077,0,0,1,.377-1.2,2.316,2.316,0,0,1,1.028-.857,3.242,3.242,0,0,1,1.405-.308,2.48,2.48,0,0,1,1.679.548,2.669,2.669,0,0,1,.891,1.508l-3.976,1.2-.308-.651,3.119-.994-.274.137a1.067,1.067,0,0,0-.411-.548,1.346,1.346,0,0,0-.788-.24,1.593,1.593,0,0,0-.72.171,1.374,1.374,0,0,0-.514.48,1.594,1.594,0,0,0-.171.72,1.3,1.3,0,0,0,.206.754,1.587,1.587,0,0,0,.548.514,1.869,1.869,0,0,0,.754.171,1.6,1.6,0,0,0,.583-.1,3.457,3.457,0,0,0,.514-.24l.583.891a3.734,3.734,0,0,1-.857.343A3.891,3.891,0,0,1,852.21,810.064Z" transform="translate(-849.4 -805.3)" fill="#fff"/>
            </g>
            <g id="Group_310" data-name="Group 310" transform="translate(110.772 0)">
              <path id="Path_496" data-name="Path 496" d="M868.8,794.8h1.3v8.226h-1.3Z" transform="translate(-868.8 -794.8)" fill="#fff"/>
            </g>
            <g id="Group_311" data-name="Group 311" transform="translate(117.901 0.514)">
              <path id="Path_497" data-name="Path 497" d="M891.9,796.334a3.967,3.967,0,0,1,2.056.48,1.547,1.547,0,0,1,.754,1.439,1.618,1.618,0,0,1-.343,1.1,2.8,2.8,0,0,1-.925.72,3.37,3.37,0,0,1-1.371.274l-.206-.651a5.074,5.074,0,0,1,1.679.274,2.816,2.816,0,0,1,1.165.72,1.616,1.616,0,0,1,.411,1.1,1.905,1.905,0,0,1-.24,1.028,2.076,2.076,0,0,1-.651.685,2.77,2.77,0,0,1-.925.377,5.326,5.326,0,0,1-1.062.1H889.6V796.3l2.3.034Zm.24,3.29a1.122,1.122,0,0,0,.891-.308,1.2,1.2,0,0,0,.274-.754.764.764,0,0,0-.377-.754,1.71,1.71,0,0,0-.994-.24H890.9v2.091l1.234-.034Zm.034,3.256a2.922,2.922,0,0,0,.788-.1,1.009,1.009,0,0,0,.548-.343.865.865,0,0,0,.206-.583.733.733,0,0,0-.24-.617,1.739,1.739,0,0,0-.617-.308,2.919,2.919,0,0,0-.788-.1h-1.131v2.091l1.234-.034Z" transform="translate(-889.6 -796.3)" fill="#fff"/>
            </g>
            <g id="Group_312" data-name="Group 312" transform="translate(124.55 3.53)">
              <path id="Path_498" data-name="Path 498" d="M911.5,809.933a3.116,3.116,0,0,1-1.268-.274,2,2,0,0,1-.891-.788,2.529,2.529,0,0,1-.343-1.3,2.238,2.238,0,0,1,.343-1.3,2.483,2.483,0,0,1,.925-.857,2.535,2.535,0,0,1,1.234-.308,1.849,1.849,0,0,1,1.131.274,4.048,4.048,0,0,1,.685.583l-.069.171.137-.823h1.2v4.456h-1.3v-1.1l.137.274a2.507,2.507,0,0,1-.171.206,3.662,3.662,0,0,1-.377.308,2.3,2.3,0,0,1-.583.274A1.3,1.3,0,0,1,911.5,809.933Zm.343-.96a2,2,0,0,0,.651-.1.962.962,0,0,0,.48-.343.943.943,0,0,0,.274-.514v-.96a1.439,1.439,0,0,0-.308-.48,1.292,1.292,0,0,0-.514-.308,2,2,0,0,0-.651-.1,1.868,1.868,0,0,0-.754.171,1.137,1.137,0,0,0-.548.514,1.349,1.349,0,0,0-.206.72,1.267,1.267,0,0,0,.206.72,1.963,1.963,0,0,0,.548.514A1.614,1.614,0,0,0,911.845,808.973Z" transform="translate(-909 -805.1)" fill="#fff"/>
            </g>
            <g id="Group_313" data-name="Group 313" transform="translate(131.885 1.542)">
              <path id="Path_499" data-name="Path 499" d="M930.4,799.917a.5.5,0,0,1,.24-.445.857.857,0,0,1,1.028,0,.586.586,0,0,1,.24.445.5.5,0,0,1-.24.446.842.842,0,0,1-.514.171.923.923,0,0,1-.514-.171A.465.465,0,0,1,930.4,799.917Zm.068,1.611h1.3v4.456h-1.3Z" transform="translate(-930.4 -799.3)" fill="#fff"/>
            </g>
            <g id="Group_314" data-name="Group 314" transform="translate(134.353 3.77)">
              <path id="Path_500" data-name="Path 500" d="M942.947,810.256H941.37L937.6,805.8h1.611Zm-2.776-1.542-1.2,1.577h-1.3l1.919-2.365Zm.137-1.337,1.1-1.577h1.3l-1.919,2.433Z" transform="translate(-937.6 -805.8)" fill="#fff"/>
            </g>
            <g id="Group_315" data-name="Group 315" transform="translate(144.258 0.411)">
              <path id="Path_501" data-name="Path 501" d="M973.32,803.232c-.137.069-.308.171-.548.274a5.04,5.04,0,0,1-.857.274,5.783,5.783,0,0,1-1.131.1,4.858,4.858,0,0,1-1.782-.308,3.892,3.892,0,0,1-1.337-.857,3.81,3.81,0,0,1-.857-1.234,3.667,3.667,0,0,1-.308-1.474,4.089,4.089,0,0,1,.308-1.611,3.61,3.61,0,0,1,.857-1.268,4.388,4.388,0,0,1,1.337-.823,4.438,4.438,0,0,1,1.679-.308,4.557,4.557,0,0,1,1.44.206,5.213,5.213,0,0,1,1.062.445l-.548,1.165a4.568,4.568,0,0,0-.823-.411,2.842,2.842,0,0,0-1.1-.206,2.793,2.793,0,0,0-1.062.206,2.681,2.681,0,0,0-.891.583,3.033,3.033,0,0,0-.617.857,2.2,2.2,0,0,0-.24,1.062,2.842,2.842,0,0,0,.206,1.1,2.605,2.605,0,0,0,1.508,1.44,3.259,3.259,0,0,0,1.2.206,3.57,3.57,0,0,0,1.131-.171,3.38,3.38,0,0,0,.788-.411Z" transform="translate(-966.5 -796)" fill="#fff"/>
            </g>
            <g id="Group_316" data-name="Group 316" transform="translate(152.175 3.53)">
              <path id="Path_502" data-name="Path 502" d="M992.1,809.933a3.116,3.116,0,0,1-1.268-.274,2,2,0,0,1-.891-.788,2.529,2.529,0,0,1-.343-1.3,2.238,2.238,0,0,1,.343-1.3,2.484,2.484,0,0,1,.925-.857,2.536,2.536,0,0,1,1.234-.308,1.848,1.848,0,0,1,1.131.274,4.045,4.045,0,0,1,.685.583l-.068.171.137-.823h1.2v4.456h-1.3v-1.1l.137.274a2.526,2.526,0,0,1-.171.206,3.654,3.654,0,0,1-.377.308,2.3,2.3,0,0,1-.583.274A1.242,1.242,0,0,1,992.1,809.933Zm.377-.96a2,2,0,0,0,.651-.1.962.962,0,0,0,.48-.343.943.943,0,0,0,.274-.514v-.96a1.437,1.437,0,0,0-.308-.48,1.291,1.291,0,0,0-.514-.308,2,2,0,0,0-.651-.1,1.868,1.868,0,0,0-.754.171,1.137,1.137,0,0,0-.548.514,1.349,1.349,0,0,0-.206.72,1.267,1.267,0,0,0,.206.72,1.963,1.963,0,0,0,.548.514A1.614,1.614,0,0,0,992.479,808.973Z" transform="translate(-989.6 -805.1)" fill="#fff"/>
            </g>
            <g id="Group_317" data-name="Group 317" transform="translate(159.578 3.599)">
              <path id="Path_503" data-name="Path 503" d="M1012.365,805.471l.1.925-.034-.069a1.991,1.991,0,0,1,.754-.754,2.507,2.507,0,0,1,1.851-.171,1.342,1.342,0,0,1,.548.343.943.943,0,0,1,.274.514l-.069.034a2,2,0,0,1,.788-.72,2.094,2.094,0,0,1,1.028-.274,1.827,1.827,0,0,1,1.165.377,1.169,1.169,0,0,1,.446.96v3.325h-1.3v-2.879a1.436,1.436,0,0,0-.137-.548c-.069-.171-.274-.24-.514-.24a1.075,1.075,0,0,0-.72.24,1.674,1.674,0,0,0-.48.617,2.032,2.032,0,0,0-.171.788v2.022h-1.3v-2.879a1.036,1.036,0,0,0-.171-.548.566.566,0,0,0-.548-.24,1.076,1.076,0,0,0-.72.24,2.134,2.134,0,0,0-.48.617,1.561,1.561,0,0,0-.171.788v2.022h-1.3v-4.456l1.165-.034Z" transform="translate(-1011.2 -805.3)" fill="#fff"/>
            </g>
            <g id="Group_318" data-name="Group 318" transform="translate(169.414 3.633)">
              <path id="Path_504" data-name="Path 504" d="M1042.882,810.13a2.459,2.459,0,0,1-.994-.206,1.8,1.8,0,0,1-.754-.548l.069-.343v3.153h-1.3V805.5h1.131l.171,1.028-.1-.308a2.68,2.68,0,0,1,.891-.583,2.631,2.631,0,0,1,1.165-.24,2.355,2.355,0,0,1,1.234.308,2.065,2.065,0,0,1,.857.857,2.574,2.574,0,0,1,.308,1.268,2.2,2.2,0,0,1-.343,1.268,2.509,2.509,0,0,1-.96.823A5.49,5.49,0,0,1,1042.882,810.13Zm-.274-.925a2.032,2.032,0,0,0,.788-.171,1.21,1.21,0,0,0,.583-.514,1.292,1.292,0,0,0,.24-.72,1.468,1.468,0,0,0-.206-.754,1.323,1.323,0,0,0-.548-.514,1.436,1.436,0,0,0-.754-.171,2.06,2.06,0,0,0-.686.1,1.053,1.053,0,0,0-.514.343,1.584,1.584,0,0,0-.308.514v.891a1.877,1.877,0,0,0,.274.514,1.354,1.354,0,0,0,.514.343A1.635,1.635,0,0,0,1042.608,809.2Z" transform="translate(-1039.9 -805.4)" fill="#fff"/>
            </g>
          </g>
        </g>
        <g id="Group_342" data-name="Group 342">
          <g id="Group_341" data-name="Group 341">
            <g id="Group_329" data-name="Group 329">
              <g id="Group_321" data-name="Group 321" transform="translate(31.806 0.487)">
                <path id="Path_505" data-name="Path 505" d="M613.64,569.4h16.451a.234.234,0,0,1,.24.24v4.25a.234.234,0,0,1-.24.24h-11.55a.234.234,0,0,0-.24.24V579.2a.234.234,0,0,0,.24.24H628.72a.234.234,0,0,1,.24.24v4.25a.234.234,0,0,1-.24.24H618.541a.234.234,0,0,0-.24.24v4.9a.234.234,0,0,0,.24.24h12.03a.234.234,0,0,1,.24.24v4.25a.234.234,0,0,1-.24.24H613.64a.234.234,0,0,1-.24-.24V569.708C613.434,569.5,613.537,569.4,613.64,569.4Z" transform="translate(-613.4 -569.4)" fill="#fff"/>
              </g>
              <g id="Group_322" data-name="Group 322" transform="translate(54.049 0.453)">
                <path id="Path_506" data-name="Path 506" d="M685.772,569.334a13.928,13.928,0,0,1,4.147.583,9.012,9.012,0,0,1,3.05,1.679,7.3,7.3,0,0,1,1.885,2.639,9.161,9.161,0,0,1,.651,3.462,11.269,11.269,0,0,1-.446,3.016,8.043,8.043,0,0,1-1.474,2.776,7.057,7.057,0,0,1-2.708,1.988,10.027,10.027,0,0,1-4.181.754h-3.256a.234.234,0,0,0-.24.24v7.4a.234.234,0,0,1-.24.24H678.54a.234.234,0,0,1-.24-.24V569.54a.234.234,0,0,1,.24-.24l7.232.034Zm.857,12.2a4.126,4.126,0,0,0,1.851-.377,2.936,2.936,0,0,0,1.165-.96,4.431,4.431,0,0,0,.617-1.2,3.558,3.558,0,0,0,.171-1.165,6.456,6.456,0,0,0-.1-1.028,4.152,4.152,0,0,0-.48-1.268,2.908,2.908,0,0,0-1.131-1.1,4.356,4.356,0,0,0-2.056-.446h-3.256a.234.234,0,0,0-.24.24v7.026a.234.234,0,0,0,.24.24l3.222.034Zm4.661,3.119,5.826,9.083a.24.24,0,0,1-.206.377h-5.141a.3.3,0,0,1-.206-.1l-5.964-8.98c-.1-.171,0-.343.206-.377l5.278-.137A.719.719,0,0,1,691.29,584.655Z" transform="translate(-678.3 -569.3)" fill="#fff"/>
              </g>
              <g id="Group_323" data-name="Group 323" transform="translate(74.785 0.213)">
                <path id="Path_507" data-name="Path 507" d="M758.919,591.632a9.525,9.525,0,0,1-1.508.925,14.575,14.575,0,0,1-2.673,1.028,14.057,14.057,0,0,1-8.74-.651,11.4,11.4,0,0,1-3.907-2.708,11.7,11.7,0,0,1-2.433-3.941,13.66,13.66,0,0,1-.857-4.764,15.106,15.106,0,0,1,.857-5.21,11.929,11.929,0,0,1,2.468-4.079,11.368,11.368,0,0,1,3.839-2.673,12.67,12.67,0,0,1,4.935-.96,13.605,13.605,0,0,1,4.421.685,15.364,15.364,0,0,1,2.982,1.337.26.26,0,0,1,.1.308l-1.714,4.147a.218.218,0,0,1-.343.1,14.5,14.5,0,0,0-2.022-1.165,7.31,7.31,0,0,0-3.222-.685,6.625,6.625,0,0,0-2.708.583,7.354,7.354,0,0,0-2.3,1.679,8.166,8.166,0,0,0-1.577,2.5,8.418,8.418,0,0,0-.583,3.119,9.688,9.688,0,0,0,.514,3.256A6.938,6.938,0,0,0,745.963,587a6.563,6.563,0,0,0,2.331,1.645,8.107,8.107,0,0,0,3.085.583,7.785,7.785,0,0,0,3.393-.651,9.444,9.444,0,0,0,1.919-1.131.214.214,0,0,1,.343.069Z" transform="translate(-738.8 -568.6)" fill="#fff"/>
              </g>
              <g id="Group_324" data-name="Group 324" transform="translate(119.512 0.487)">
                <path id="Path_508" data-name="Path 508" d="M869.54,569.4h16.246a.234.234,0,0,1,.24.24v4.25a.234.234,0,0,1-.24.24h-5.552a.234.234,0,0,0-.24.24v19.6a.234.234,0,0,1-.24.24h-4.387a.234.234,0,0,1-.24-.24v-19.6a.234.234,0,0,0-.24-.24H869.54a.234.234,0,0,1-.24-.24v-4.25A.289.289,0,0,1,869.54,569.4Z" transform="translate(-869.3 -569.4)" fill="#fff"/>
              </g>
              <g id="Group_325" data-name="Group 325" transform="translate(148.85 0.487)">
                <path id="Path_509" data-name="Path 509" d="M954.9,593.94V569.674a.27.27,0,0,1,.274-.274h7.163a16.733,16.733,0,0,1,6.375,1.1,11.035,11.035,0,0,1,4.216,2.982,11.57,11.57,0,0,1,2.331,4.147,15.554,15.554,0,0,1,.754,4.627,12.136,12.136,0,0,1-.994,4.97,11.175,11.175,0,0,1-2.708,3.77,11.979,11.979,0,0,1-3.976,2.4,13.837,13.837,0,0,1-4.8.823h-8.363A.3.3,0,0,1,954.9,593.94Zm4.9-4.73a.27.27,0,0,0,.274.274h2.639a11.353,11.353,0,0,0,3.359-.48,7.116,7.116,0,0,0,2.6-1.44,5.956,5.956,0,0,0,1.679-2.365,8.289,8.289,0,0,0,.583-3.29,8.658,8.658,0,0,0-.788-3.941A6.468,6.468,0,0,0,968.2,575.6a7.233,7.233,0,0,0-2.365-1.165,8.783,8.783,0,0,0-2.056-.308h-3.7a.27.27,0,0,0-.274.274V589.21Z" transform="translate(-954.9 -569.4)" fill="#fff"/>
              </g>
              <g id="Group_326" data-name="Group 326" transform="translate(174.795 0.487)">
                <path id="Path_510" data-name="Path 510" d="M1030.909,569.4h16.383a.27.27,0,0,1,.274.274v4.181a.27.27,0,0,1-.274.274h-11.516a.27.27,0,0,0-.274.274v4.764a.27.27,0,0,0,.274.274h10.111a.27.27,0,0,1,.274.274V583.9a.27.27,0,0,1-.274.274h-10.111a.27.27,0,0,0-.274.274v4.833a.27.27,0,0,0,.274.274h11.962a.27.27,0,0,1,.274.274v4.181a.27.27,0,0,1-.274.274h-16.863a.27.27,0,0,1-.274-.274V569.743C1030.634,569.5,1030.771,569.4,1030.909,569.4Z" transform="translate(-1030.6 -569.4)" fill="#fff"/>
              </g>
              <g id="Group_327" data-name="Group 327" transform="translate(0 0.188)">
                <path id="Path_511" data-name="Path 511" d="M546.1,568.654a.225.225,0,0,0-.308-.1l-.069.034-12.339,17.1h0a.237.237,0,0,1-.343,0l-.069-.069-12.03-17.068h-.034a.225.225,0,0,0-.308.1v25.02a.234.234,0,0,0,.24.24h4.25a.234.234,0,0,0,.24-.24V582.809l7.609,10.556.034.034a.279.279,0,0,0,.343,0l.034-.034,7.917-11.242v11.584a.234.234,0,0,0,.24.24h4.421a.234.234,0,0,0,.24-.24V568.756Z" transform="translate(-520.6 -568.525)" fill="#fff"/>
              </g>
              <g id="Group_328" data-name="Group 328" transform="translate(97.076)">
                <path id="Path_512" data-name="Path 512" d="M815.272,568.088l-.034-.034a.237.237,0,0,0-.343,0l-.068.069-10.968,25.26a.236.236,0,0,0,.206.343h4.318a.231.231,0,0,0,.206-.137l1.954-4.7h8.226l1.851,4.7a.213.213,0,0,0,.206.137h5.141a.236.236,0,0,0,.206-.343Zm1.679,16.657H812.5a.369.369,0,0,1-.137-.171h0l2.331-5.587a.249.249,0,0,1,.206-.034l2.193,5.587C817.088,584.677,817.02,584.745,816.951,584.745Z" transform="translate(-803.837 -567.978)" fill="#fff"/>
              </g>
            </g>
            <g id="Group_340" data-name="Group 340" transform="translate(0.137 37.632)">
              <g id="Group_330" data-name="Group 330" transform="translate(160.915 0.453)">
                <path id="Path_513" data-name="Path 513" d="M990.74,679.1h4.421a.234.234,0,0,1,.24.24v24.334a.234.234,0,0,1-.24.24H990.74a.234.234,0,0,1-.24-.24V679.306A.229.229,0,0,1,990.74,679.1Z" transform="translate(-990.5 -679.1)" fill="#fff"/>
              </g>
              <g id="Group_331" data-name="Group 331" transform="translate(0 0.487)">
                <path id="Path_514" data-name="Path 514" d="M521.274,679.2h4.49a.27.27,0,0,1,.274.274l-.137,19.57a.27.27,0,0,0,.274.274h11.962a.27.27,0,0,1,.274.274v4.181a.27.27,0,0,1-.274.274H521.274a.27.27,0,0,1-.274-.274V679.508A.28.28,0,0,1,521.274,679.2Z" transform="translate(-521 -679.2)" fill="#fff"/>
              </g>
              <g id="Group_332" data-name="Group 332" transform="translate(52.302 0.487)">
                <path id="Path_515" data-name="Path 515" d="M681.209,679.2a11.7,11.7,0,0,1,5.175,1.028,7.216,7.216,0,0,1,3.222,2.913,8.81,8.81,0,0,1,1.1,4.421,11.726,11.726,0,0,1-.446,3.05,8.245,8.245,0,0,1-1.44,2.776,6.685,6.685,0,0,1-2.673,1.988,9.694,9.694,0,0,1-4.113.754h-3.256a.27.27,0,0,0-.274.274v7.335a.27.27,0,0,1-.274.274h-4.353a.27.27,0,0,1-.274-.274V679.474a.27.27,0,0,1,.274-.274Zm.857,12.2a4.127,4.127,0,0,0,1.851-.377,3.646,3.646,0,0,0,1.165-.96,4.622,4.622,0,0,0,.617-1.234,3.435,3.435,0,0,0,.171-1.1,6.478,6.478,0,0,0-.1-.994,4.154,4.154,0,0,0-.48-1.268,3.165,3.165,0,0,0-1.131-1.1,4.357,4.357,0,0,0-2.056-.446h-3.256a.27.27,0,0,0-.274.274v6.923a.27.27,0,0,0,.274.274Z" transform="translate(-673.6 -679.2)" fill="#fff"/>
              </g>
              <g id="Group_333" data-name="Group 333" transform="translate(92.162 0.179)">
                <path id="Path_516" data-name="Path 516" d="M811.355,690.433H802.65a.27.27,0,0,0-.274.274v4.181a.27.27,0,0,0,.274.274h3.736a.27.27,0,0,1,.274.274v2.742a4.383,4.383,0,0,1-1.474.48,11.235,11.235,0,0,1-1.919.137,10.251,10.251,0,0,1-3.325-.514,7.473,7.473,0,0,1-2.6-1.474,7,7,0,0,1-1.714-2.365,7.726,7.726,0,0,1-.617-3.153,9.854,9.854,0,0,1,.548-3.5,6.315,6.315,0,0,1,1.611-2.5,6.774,6.774,0,0,1,2.6-1.508,11.321,11.321,0,0,1,3.564-.514,9.531,9.531,0,0,1,1.851.206c.685.137,1.371.343,2.056.548a9.748,9.748,0,0,1,1.131.446h0l.24.1a.224.224,0,0,0,.274-.1l1.44-4.113a.281.281,0,0,0-.137-.343,15.947,15.947,0,0,0-3.153-1.2,17.511,17.511,0,0,0-4.387-.514,14.316,14.316,0,0,0-4.833.823,11.525,11.525,0,0,0-4.079,2.468,11.386,11.386,0,0,0-2.81,4.181A15.549,15.549,0,0,0,789.9,691.7a12.342,12.342,0,0,0,.925,4.8,10.56,10.56,0,0,0,2.639,3.8,12.533,12.533,0,0,0,4.147,2.5,15.939,15.939,0,0,0,5.449.891,12.438,12.438,0,0,0,2.433-.24,20.617,20.617,0,0,0,2.5-.651,16.476,16.476,0,0,0,2.159-.891,5.476,5.476,0,0,0,1.371-.96V690.741C811.629,690.536,811.492,690.433,811.355,690.433Z" transform="translate(-789.9 -678.3)" fill="#fff"/>
              </g>
              <g id="Group_334" data-name="Group 334" transform="translate(139.218 0.282)">
                <path id="Path_517" data-name="Path 517" d="M934.395,683.57a4.424,4.424,0,0,1,2.5-.651,8.2,8.2,0,0,1,2.742.514,16.288,16.288,0,0,1,2.639,1.165.238.238,0,0,0,.343-.1l1.611-3.29a.238.238,0,0,0-.1-.343,18,18,0,0,0-3.153-1.542,13.759,13.759,0,0,0-4.867-.72,9.4,9.4,0,0,0-4.044,1.028,6.826,6.826,0,0,0-2.708,2.5,6.97,6.97,0,0,0-.96,3.736,6.231,6.231,0,0,0,.651,3.016,6.7,6.7,0,0,0,1.714,2.056,13.039,13.039,0,0,0,2.262,1.405q1.234.566,2.365,1.028a9.941,9.941,0,0,1,1.816.891,5.353,5.353,0,0,1,1.3,1.1,2.13,2.13,0,0,1,.48,1.337,2.378,2.378,0,0,1-.583,1.679,3.354,3.354,0,0,1-1.474.857,6.38,6.38,0,0,1-1.782.24,8.088,8.088,0,0,1-1.919-.274,12.447,12.447,0,0,1-2.056-.754c-.514-.24-1.439-.823-1.439-.823l-.24-.171a.282.282,0,0,0-.343.069h0l-1.919,3.359a.258.258,0,0,0,.069.343,15.142,15.142,0,0,0,2.536,1.371,14.7,14.7,0,0,0,2.879.891,13.874,13.874,0,0,0,2.879.274,10.081,10.081,0,0,0,4.661-.994,7.116,7.116,0,0,0,2.879-2.6,6.633,6.633,0,0,0,.96-3.5,7.808,7.808,0,0,0-.514-3.016,6.283,6.283,0,0,0-1.337-2.056,7.382,7.382,0,0,0-1.885-1.371c-.685-.343-1.405-.685-2.125-.96a22.4,22.4,0,0,1-2.262-.96,5.863,5.863,0,0,1-1.782-1.234,2.212,2.212,0,0,1-.685-1.577A2.255,2.255,0,0,1,934.395,683.57Z" transform="translate(-927.196 -678.6)" fill="#fff"/>
              </g>
              <g id="Group_336" data-name="Group 336" transform="translate(118.724 0.419)">
                <g id="Group_335" data-name="Group 335">
                  <path id="Path_518" data-name="Path 518" d="M884.537,699.153H872.575a.27.27,0,0,1-.274-.274v-4.833a.27.27,0,0,1,.274-.274h10.111a.27.27,0,0,0,.274-.274v-4.181a.27.27,0,0,0-.274-.274H872.575a.27.27,0,0,1-.274-.274V684a.27.27,0,0,1,.274-.274h11.482a.27.27,0,0,0,.274-.274v-4.181a.27.27,0,0,0-.274-.274H867.674a.27.27,0,0,0-.274.274V703.54a.27.27,0,0,0,.274.274h16.863a.27.27,0,0,0,.274-.274v-4.181A.3.3,0,0,0,884.537,699.153Z" transform="translate(-867.4 -679)" fill="#fff"/>
                </g>
              </g>
              <g id="Group_337" data-name="Group 337" transform="translate(169.462)">
                <path id="Path_519" data-name="Path 519" d="M1026.872,677.888l-.034-.034a.237.237,0,0,0-.343,0l-.068.069-10.968,25.26a.236.236,0,0,0,.206.343h4.318a.231.231,0,0,0,.206-.137l1.954-4.7h8.226l1.851,4.7a.213.213,0,0,0,.206.137h5.141a.236.236,0,0,0,.206-.343Zm1.679,16.657h-4.421a.368.368,0,0,1-.137-.171h0l2.331-5.587a.249.249,0,0,1,.206-.034l2.193,5.587C1028.688,694.477,1028.62,694.545,1028.551,694.545Z" transform="translate(-1015.437 -677.778)" fill="#fff"/>
              </g>
              <g id="Group_338" data-name="Group 338" transform="translate(68.666 0.034)">
                <path id="Path_520" data-name="Path 520" d="M732.779,678.022l-.069-.069a.237.237,0,0,0-.343,0l-.069.069-10.933,25.191a.281.281,0,0,0,.24.377h4.25a.258.258,0,0,0,.24-.171l1.954-4.7h8.226l1.851,4.7a.258.258,0,0,0,.24.171h5.073a.266.266,0,0,0,.24-.377Zm-.514,10.522Zm2.193,6.066H729.9a.59.59,0,0,1-.1-.137v-.034l2.331-5.552a.2.2,0,0,1,.24,0l2.194,5.552h0C734.561,694.508,734.526,694.542,734.458,694.611Z" transform="translate(-721.347 -677.878)" fill="#fff"/>
              </g>
              <g id="Group_339" data-name="Group 339" transform="translate(19.381 0.034)">
                <path id="Path_521" data-name="Path 521" d="M588.979,678.022l-.069-.069a.237.237,0,0,0-.343,0l-.069.069-10.933,25.191a.281.281,0,0,0,.24.377h4.25a.258.258,0,0,0,.24-.171l1.954-4.7h8.226l1.851,4.7a.258.258,0,0,0,.24.171h5.073a.267.267,0,0,0,.24-.377Zm-.48,10.522Zm2.194,6.066h-4.558a.591.591,0,0,1-.1-.137v-.034l2.331-5.552a.2.2,0,0,1,.24,0l2.194,5.552h0C590.8,694.508,590.726,694.542,590.692,694.611Z" transform="translate(-577.547 -677.878)" fill="#fff"/>
              </g>
            </g>
          </g>
        </g>
      </g>
      <g id="Group_369" data-name="Group 369" transform="translate(0)">
        <g id="Group_363" data-name="Group 363">
          <g id="Group_346" data-name="Group 346" transform="translate(0.401 132.931)">
            <g id="Group_344" data-name="Group 344">
              <path id="Path_522" data-name="Path 522" d="M215.376,613.765a11.549,11.549,0,0,1-1.508-.1h0c-5.552-.72-8.877-5.587-8.089-11.893a11.173,11.173,0,0,1,3.976-7.574,8.936,8.936,0,0,1,6.752-1.748c4.558.583,7.917,4.181,9.22,9.905a2.857,2.857,0,0,1,.137.411,3.339,3.339,0,0,1,.343,1.748,3.732,3.732,0,0,1-.823,1.645c-.1.137-.24.308-.274.377C222.779,611.4,219.557,613.765,215.376,613.765Zm-1.2-2.536c3.873.48,6.581-1.3,8.774-5.792a6.737,6.737,0,0,1,.48-.754,4.466,4.466,0,0,0,.343-.514,5.686,5.686,0,0,0-.206-.548,3.8,3.8,0,0,1-.24-.754c-.617-2.742-2.365-7.4-7.129-7.986a6.486,6.486,0,0,0-4.935,1.268,8.693,8.693,0,0,0-3.05,5.964c-.48,3.976,1.165,8.534,5.964,9.117Zm9.665-7.129Z" transform="translate(-205.664 -592.366)" fill="#fff"/>
            </g>
            <g id="Group_345" data-name="Group 345" transform="translate(2.519 0.971)">
              <path id="Path_523" data-name="Path 523" d="M214.244,613.33a1.232,1.232,0,0,1-.617-2.3c.446-.308,1.542-2.708,2.056-6.718.514-4.044.034-6.615-.343-7.026a1.236,1.236,0,0,1,1.782-1.714c1.371,1.474,1.405,5.621.994,9.014-.137,1.2-.994,7.232-3.256,8.534A.894.894,0,0,1,214.244,613.33Z" transform="translate(-213.015 -595.199)" fill="#fff"/>
            </g>
          </g>
          <g id="Group_347" data-name="Group 347" transform="translate(42.993 158.454)">
            <path id="Path_524" data-name="Path 524" d="M331.294,697.944h-.206a1.328,1.328,0,0,1-1.131-1.542l4.353-28.413a1.352,1.352,0,1,1,2.673.411l-4.353,28.413A1.309,1.309,0,0,1,331.294,697.944Z" transform="translate(-329.935 -666.835)" fill="#fff"/>
          </g>
          <g id="Group_348" data-name="Group 348" transform="translate(18.589 112.56)">
            <path id="Path_525" data-name="Path 525" d="M291.966,561.745a.669.669,0,0,1-.24-.034,1.387,1.387,0,0,1-1.131-1.577l3.119-18.542-33.862-5.964a1.358,1.358,0,1,1,.48-2.673l35.2,6.2a1.338,1.338,0,0,1,1.1,1.577l-3.359,19.879A1.3,1.3,0,0,1,291.966,561.745Z" transform="translate(-258.732 -532.932)" fill="#fff"/>
          </g>
          <g id="Group_354" data-name="Group 354" transform="translate(0 116.857)">
            <g id="Group_349" data-name="Group 349" transform="translate(9.041)">
              <path id="Path_526" data-name="Path 526" d="M268.928,564.192a1.67,1.67,0,0,1-.411-.034L235,558.3a4.989,4.989,0,0,1-4.044-5.792l.48-2.879a5.05,5.05,0,0,1,2.056-3.256,4.913,4.913,0,0,1,3.7-.823l33.52,5.861a2.451,2.451,0,0,1,1.988,2.845h0l-1.337,7.883a2.436,2.436,0,0,1-.994,1.577A2.5,2.5,0,0,1,268.928,564.192ZM236.3,547.946a2.735,2.735,0,0,0-1.439.446,2.5,2.5,0,0,0-1.028,1.645l-.48,2.879a2.557,2.557,0,0,0,2.056,2.948l33.52,5.861,1.337-7.883h0l-33.52-5.861C236.608,547.98,236.471,547.946,236.3,547.946Zm35.2,6.1Z" transform="translate(-230.876 -545.467)" fill="#fff"/>
            </g>
            <g id="Group_350" data-name="Group 350" transform="translate(5.436 7.125)">
              <path id="Path_527" data-name="Path 527" d="M224.93,569.288a.435.435,0,0,1-.206-.034l-3.359-.583a1.217,1.217,0,1,1,.411-2.4l3.359.583a1.234,1.234,0,0,1,.994,1.405A1.212,1.212,0,0,1,224.93,569.288Z" transform="translate(-220.357 -566.257)" fill="#fff"/>
            </g>
            <g id="Group_351" data-name="Group 351" transform="translate(6.499 0.913)">
              <path id="Path_528" data-name="Path 528" d="M228.03,551.171a.434.434,0,0,1-.206-.034l-3.359-.583a1.234,1.234,0,0,1-.994-1.405,1.208,1.208,0,0,1,1.405-.994l3.359.583a1.234,1.234,0,0,1,.994,1.405A1.187,1.187,0,0,1,228.03,551.171Z" transform="translate(-223.457 -548.131)" fill="#fff"/>
            </g>
            <g id="Group_352" data-name="Group 352" transform="translate(0 0.17)">
              <path id="Path_529" data-name="Path 529" d="M211.146,555.368a.435.435,0,0,1-.206-.034l-4.181-.72a2.767,2.767,0,0,1-2.228-3.153l.548-3.222a2.732,2.732,0,0,1,3.187-2.228l4.181.72a1.234,1.234,0,0,1,.994,1.405,1.208,1.208,0,0,1-1.405.994l-4.181-.72c-.1,0-.171,0-.206.034a.293.293,0,0,0-.1.206L207,551.872a.282.282,0,0,0,.24.343l4.181.72a1.234,1.234,0,0,1,.994,1.405A1.283,1.283,0,0,1,211.146,555.368Z" transform="translate(-204.496 -545.964)" fill="#fff"/>
            </g>
            <g id="Group_353" data-name="Group 353" transform="translate(4.134 0.888)">
              <path id="Path_530" data-name="Path 530" d="M217.771,556.092a.434.434,0,0,1-.206-.034,1.234,1.234,0,0,1-.994-1.405l.994-5.587a1.217,1.217,0,0,1,2.4.411l-.994,5.587A1.187,1.187,0,0,1,217.771,556.092Z" transform="translate(-216.557 -548.057)" fill="#fff"/>
            </g>
          </g>
          <g id="Group_360" data-name="Group 360" transform="translate(8.838 153.492)">
            <g id="Group_355" data-name="Group 355" transform="translate(7.341 13.895)">
              <path id="Path_531" data-name="Path 531" d="M258.692,711.3a18.289,18.289,0,0,1-6.238-1.062,1.22,1.22,0,0,1-.754-1.131c0-.377.1-3.8,2.022-5.312a4.042,4.042,0,0,1,2.708-.72c.823.034.891.034,1.2-.583.206-.411.343-.788.48-1.131a5.463,5.463,0,0,1,4.147-3.873c2.091-.651,2.091-.651,2.6-1.542.1-.206.24-.411.411-.685a6.09,6.09,0,0,1,4.935-2.365,5.157,5.157,0,0,1,4.593,2.3,1.1,1.1,0,0,1,.206.788c-.034.377-1.028,9.357-8.157,13.264A16.507,16.507,0,0,1,258.692,711.3Zm-4.49-3.05a15.362,15.362,0,0,0,11.447-1.131c5.141-2.81,6.546-9.117,6.82-10.9a2.962,2.962,0,0,0-2.262-.857,3.866,3.866,0,0,0-2.913,1.2c-.137.24-.274.446-.377.617-.925,1.542-1.268,1.782-3.976,2.6a3.228,3.228,0,0,0-2.6,2.468,11.834,11.834,0,0,1-.548,1.268,3.2,3.2,0,0,1-3.462,1.988c-.583,0-.891,0-1.165.206A4.871,4.871,0,0,0,254.2,708.253Z" transform="translate(-251.7 -692.897)" fill="#fff"/>
            </g>
            <g id="Group_356" data-name="Group 356" transform="translate(9.552)">
              <path id="Path_532" data-name="Path 532" d="M270.542,670.536h-.034a6.027,6.027,0,0,1-5.518-4.627,14.493,14.493,0,0,1-.514-3.325c-.069-.994-.069-1.131-.72-1.714a4.7,4.7,0,0,0-1.371-.788,4.676,4.676,0,0,1-3.016-3.119l-1.131-2.845a1.277,1.277,0,0,1,.069-1.062,1.139,1.139,0,0,1,.891-.583c.343-.034,8.637-1.028,13.607,3.427,4.7,4.216,5.107,6.409,6.2,12.27l.171.891a1.247,1.247,0,0,1-.754,1.371,1.225,1.225,0,0,1-1.474-.446s-.96-1.371-2.091-1.2a11.481,11.481,0,0,0-3.7,1.577A1.466,1.466,0,0,1,270.542,670.536Zm-9.357-15.766.48,1.234c.514,1.268.891,1.44,1.679,1.748a5.941,5.941,0,0,1,2.091,1.268,4.16,4.16,0,0,1,1.508,3.393,13.386,13.386,0,0,0,.446,2.879,3.571,3.571,0,0,0,2.879,2.742,12.918,12.918,0,0,1,4.318-1.748,3.71,3.71,0,0,1,1.645.137c-.823-4.044-1.508-5.621-5-8.74C268.28,655.045,263.619,654.736,261.185,654.771Z" transform="translate(-258.153 -652.357)" fill="#fff"/>
            </g>
            <g id="Group_357" data-name="Group 357" transform="translate(3.528 6.313)">
              <path id="Path_533" data-name="Path 533" d="M244.492,694.638c-3.187,0-3.7-1.577-3.8-2.125-.48-2.845.685-4.387,1.782-5.175a6.7,6.7,0,0,1,2.194-.96c.24-.069.583-.171.754-.24a7.721,7.721,0,0,1,1.645-5.484,1.965,1.965,0,0,1,.377-.377c.925-.994,1.748-1.851,1.645-3.633a6.547,6.547,0,0,1,1.851-5.175,2.706,2.706,0,0,1,2.433-.617,1.218,1.218,0,1,1-.583,2.365c-.1-.034-.206.069-.308.137a4.106,4.106,0,0,0-.994,3.153,6.849,6.849,0,0,1-2.3,5.45,3.221,3.221,0,0,1-.343.343,5.343,5.343,0,0,0-1.028,3.7c.171,1.954-1.577,2.468-2.536,2.742a4.334,4.334,0,0,0-1.405.583c-.514.377-1.062,1.028-.823,2.639a6.065,6.065,0,0,0,2.4.171,1.223,1.223,0,0,1,.24,2.433C245.28,694.6,244.869,694.638,244.492,694.638Z" transform="translate(-240.576 -670.775)" fill="#fff"/>
            </g>
            <g id="Group_358" data-name="Group 358" transform="translate(5.867 0.967)">
              <path id="Path_534" data-name="Path 534" d="M251.581,673.659a1.267,1.267,0,0,1-.994-.48,11.114,11.114,0,0,1-1.817-3.462,5.642,5.642,0,0,1,.171-2.708,3.76,3.76,0,0,0,.171-1.2,8.77,8.77,0,0,0-.514-1.165,10.432,10.432,0,0,1-.891-2.228,12.412,12.412,0,0,1-.308-3.462,3.568,3.568,0,0,1,1.645-3.222,4.6,4.6,0,0,1,4.456.034,1.223,1.223,0,1,1-1.268,2.091,2.276,2.276,0,0,0-2.056.034,1.529,1.529,0,0,0-.343,1.062,10.253,10.253,0,0,0,.24,2.879,11.827,11.827,0,0,0,.72,1.748,6.226,6.226,0,0,1,.754,2.091,6.382,6.382,0,0,1-.24,1.919,3.646,3.646,0,0,0-.137,1.611,9.415,9.415,0,0,0,1.371,2.468,1.211,1.211,0,0,1-.24,1.714A.953.953,0,0,1,251.581,673.659Z" transform="translate(-247.4 -655.178)" fill="#fff"/>
            </g>
            <g id="Group_359" data-name="Group 359" transform="translate(0 3.572)">
              <path id="Path_535" data-name="Path 535" d="M235.018,686.23a1.294,1.294,0,0,1-.823-.308c-.1-.1-2.742-2.433-2.742-5.415a6.107,6.107,0,0,1,.411-2.4c.034-.069.034-.137.069-.171a5.326,5.326,0,0,0-.274-.48,6.01,6.01,0,0,1-.994-5.929,6.959,6.959,0,0,1,1.645-2.845,1.455,1.455,0,0,0,.446-.685c.308-1.028,1.542-4.456,4.318-5.175a1.226,1.226,0,0,1,.651,2.365c-1.3.343-2.228,2.365-2.571,3.53a3.94,3.94,0,0,1-.994,1.611,4.537,4.537,0,0,0-1.131,1.988,3.651,3.651,0,0,0,.685,3.77A2.7,2.7,0,0,1,234.23,679a3.543,3.543,0,0,0-.274,1.508c0,1.851,1.885,3.564,1.919,3.6a1.243,1.243,0,0,1,.1,1.748A1.473,1.473,0,0,1,235.018,686.23Z" transform="translate(-230.282 -662.78)" fill="#fff"/>
            </g>
          </g>
          <g id="Group_361" data-name="Group 361" transform="translate(109.718 28.095)">
            <path id="Path_536" data-name="Path 536" d="M726.34,307.647c.925-.171,1.851-.308,2.776-.48-.72-8.123,4.284-14.738,4.318-14.806a1.368,1.368,0,1,0-2.159-1.679,27.243,27.243,0,0,0-4.421,9.871,43.3,43.3,0,0,0-5.072-8.466,1.368,1.368,0,0,0-2.159,1.679A37.566,37.566,0,0,1,726.34,307.647Z" transform="translate(-652.59 -288.895)" fill="#fff"/>
            <path id="Path_537" data-name="Path 537" d="M834,302.566l2.913.1c.308-7.951,5.758-13.778,5.792-13.847a1.382,1.382,0,1,0-1.988-1.919,26.929,26.929,0,0,0-5.415,9.357,42.481,42.481,0,0,0-4.181-8.98,1.37,1.37,0,1,0-2.331,1.44A37.409,37.409,0,0,1,834,302.566Z" transform="translate(-724.402 -286.487)" fill="#fff"/>
            <path id="Path_538" data-name="Path 538" d="M607.31,323.686a36.01,36.01,0,0,1,10.076,12.064c.857-.377,1.714-.72,2.57-1.1-2.913-7.849.411-15.7.446-15.766a1.382,1.382,0,1,0-2.536-1.1,27.248,27.248,0,0,0-1.885,10.659,41.81,41.81,0,0,0-6.992-6.958,1.336,1.336,0,0,0-1.919.24A1.439,1.439,0,0,0,607.31,323.686Z" transform="translate(-578.63 -306.511)" fill="#fff"/>
            <path id="Path_539" data-name="Path 539" d="M525.23,368c7.917,5.312,11.139,11.482,11.139,11.516s.034.034.034.069c.754-.548,1.508-1.1,2.262-1.611-3.5-7.574-.823-15.7-.788-15.766a1.377,1.377,0,0,0-2.6-.891,26.648,26.648,0,0,0-1.028,10.8,42.332,42.332,0,0,0-7.506-6.375A1.36,1.36,0,1,0,525.23,368Z" transform="translate(-524.62 -335.061)" fill="#fff"/>
          </g>
          <path id="Path_540" data-name="Path 540" d="M918.574,232.134l.514.1-1.337,5.621h0l-3.187,13.264c.823.137,1.611.274,2.433.446l1.405-5.9v-.034l1.439-6.032,29,7.06-3.119,13.024c.788.308,1.542.617,2.3.925l4.833-20.187a2.524,2.524,0,0,0,.48.137,6.807,6.807,0,0,0,5.312-.857,7.642,7.642,0,0,0,3.427-4.764h0a.509.509,0,0,0,.034-.24v-.24l-2.81-21.25a1.207,1.207,0,0,0-.925-1.028l-31.395-7.643a1.287,1.287,0,0,0-1.3.48l-12.133,17.617a1.056,1.056,0,0,0-.171.411A7.405,7.405,0,0,0,918.574,232.134Zm33.9-18.748,4.49,1.1,2.468,18.645-8.808-2.159Zm6.82,22.209a5.037,5.037,0,0,1-1.885,2.091,4.428,4.428,0,0,1-3.462.548,4.813,4.813,0,0,1-3.564-4.833Zm-8.671,3.667-1.2,5.038-29-7.06,1.2-5.073a7.082,7.082,0,0,0,2.262-.891,8.8,8.8,0,0,0,1.268-.96,7.09,7.09,0,0,0,5,4.627,6.911,6.911,0,0,0,5.312-.857,8.8,8.8,0,0,0,1.268-.96,7.09,7.09,0,0,0,5,4.627,6.911,6.911,0,0,0,5.312-.857,8.8,8.8,0,0,0,1.268-.96A7.12,7.12,0,0,0,950.62,239.263Zm-23.443-11.482,8.911,2.159a5.038,5.038,0,0,1-1.885,2.091,4.428,4.428,0,0,1-3.462.548A4.811,4.811,0,0,1,927.177,227.782Zm11.584,2.81,8.911,2.159a5.037,5.037,0,0,1-1.885,2.091,4.428,4.428,0,0,1-3.462.548A4.811,4.811,0,0,1,938.761,230.592Zm11.31-17.822-1.851,17.582-9.014-2.194,4.079-17.034Zm-9.185-2.228-4.079,17.034-9.048-2.194,6.306-16.486Zm-13.675-3.325,4.49,1.1L925.395,224.8l-8.808-2.159ZM924.5,227.13a5.28,5.28,0,0,1-1.885,2.091,4.428,4.428,0,0,1-3.462.548,4.813,4.813,0,0,1-3.564-4.833Z" transform="translate(-670.26 -204.515)" fill="#fff"/>
          <path id="Path_541" data-name="Path 541" d="M1141.709,295.228l-30.3-22.381a1.238,1.238,0,0,0-1.405-.034l-20.873,13.4a.973.973,0,0,0-.343.308,8.43,8.43,0,0,0,1.577,11.756,4.716,4.716,0,0,0,.686.446l-4.079,5.587h0l-3.05,4.216-1.988,2.742h0l-3.736,5.141c.685.446,1.405.857,2.091,1.3l6.272-8.637,1.679-2.331,28.344,20.941-9.528,13.093c.548.651,1.1,1.268,1.611,1.919l10.591-14.566h0l4.078-5.587.617.514a7.789,7.789,0,0,0,4.7,1.542,8.244,8.244,0,0,0,1.268-.1,8.644,8.644,0,0,0,5.655-3.462h0l.1-.206a.12.12,0,0,1,.034-.069c0-.034.034-.069.034-.137l6.409-24.094A1.207,1.207,0,0,0,1141.709,295.228Zm-17.582-9.939-12.2,16.76-9.082-6.718,14.395-15.149Zm-11.584,20.29,9.014,6.649a5.849,5.849,0,0,1-3.222,1.577,5.455,5.455,0,0,1-4.113-.994A5.854,5.854,0,0,1,1112.542,305.579Zm-2.159-1.611a5.849,5.849,0,0,1-3.222,1.577,5.575,5.575,0,0,1-4.147-.994,5.933,5.933,0,0,1-1.679-7.266Zm.24-28.653,4.627,3.427-14.4,15.149-8.877-6.581Zm-20.461,13.709,9.014,6.683a5.849,5.849,0,0,1-3.222,1.577,5.455,5.455,0,0,1-4.113-.994A5.933,5.933,0,0,1,1090.161,289.025Zm27.83,36.673-28.344-20.941,3.736-5.141a7.547,7.547,0,0,0,2.913.069,8.509,8.509,0,0,0,2.022-.583,8.173,8.173,0,0,0,3.222,7.4,7.858,7.858,0,0,0,5.964,1.439,8.508,8.508,0,0,0,2.022-.583,8.173,8.173,0,0,0,3.222,7.4,7.858,7.858,0,0,0,5.964,1.439,8.507,8.507,0,0,0,2.022-.583,8.372,8.372,0,0,0,1.028,4.9Zm-4.113-22.175,12.2-16.76,6.855,5.072-10.008,18.4Zm15.663,18.576a5.455,5.455,0,0,1-4.113-.994,5.933,5.933,0,0,1-1.679-7.266l9.014,6.683A6.482,6.482,0,0,1,1129.542,322.1Zm4.284-3.873-8.877-6.546,10.008-18.4,4.627,3.427Z" transform="translate(-778.75 -249.273)" fill="#fff"/>
          <g id="Group_362" data-name="Group 362" transform="translate(342.189 98.257)">
            <path id="Path_542" data-name="Path 542" d="M1220.343,620.454c.034.069.034.1.068.171l-.1-.925A1.141,1.141,0,0,0,1220.343,620.454Z" transform="translate(-1214.31 -575.658)" fill="#fff"/>
            <path id="Path_543" data-name="Path 543" d="M1252.083,520.847l-9.768-28.139a1.216,1.216,0,0,0-1.131-.823l-19.433-.685a1.332,1.332,0,0,0-.514.069.12.12,0,0,0-.069.034,6.892,6.892,0,0,0-4.284,8.637c.034.1.1.24.137.343l-11.242,3.941h0l-2.365.823a1.356,1.356,0,0,0-.514.343c.343.685.651,1.337.994,2.022a1.216,1.216,0,0,0,.343-.069l7.609-2.673,8.945,25.842-9.254,3.256c.1.823.206,1.679.274,2.5l.754-.274h.034l9.254-3.256,5.758-2.022c.034.1.068.24.1.343a6.723,6.723,0,0,0,3.359,3.77,6.989,6.989,0,0,0,5.381.274h0l.206-.1a.074.074,0,0,0,.069-.069c.034-.034.068-.034.1-.069l14.84-12.75A1.075,1.075,0,0,0,1252.083,520.847Zm-4.73-6.2-14.155,7.2-2.742-7.917,14.84-5.21Zm-4.935-14.155,2.056,5.929-14.84,5.21-2.742-7.917Zm-15.149,11.79a4.43,4.43,0,0,1-2.3-.411,4.009,4.009,0,0,1-2.125-2.365,4.327,4.327,0,0,1,1.748-4.97Zm13.024-17.994,1.337,3.839-15.526,3.256-2.673-7.677Zm-19.3-.171,2.673,7.78a4.429,4.429,0,0,1-2.3-.411,4.237,4.237,0,0,1-2.125-2.365A4.391,4.391,0,0,1,1221,494.113Zm6.409,34.1-4.284,1.508-8.945-25.842,4.284-1.508a7.009,7.009,0,0,0,1.817,1.3,5.06,5.06,0,0,0,1.2.446,6.8,6.8,0,0,0-.994,6.169,6.559,6.559,0,0,0,3.393,3.77,5.061,5.061,0,0,0,1.2.446,6.8,6.8,0,0,0-.994,6.169,6.722,6.722,0,0,0,3.359,3.77,5.06,5.06,0,0,0,1.2.446A7.676,7.676,0,0,0,1227.406,528.216Zm1.165-5.964a4.236,4.236,0,0,1-2.125-2.365,4.327,4.327,0,0,1,1.748-4.97l2.673,7.746A4.429,4.429,0,0,1,1228.571,522.252Zm3.6,10.385a4.237,4.237,0,0,1-2.125-2.365,4.327,4.327,0,0,1,1.748-4.97l2.673,7.78A4.831,4.831,0,0,1,1232.17,532.637Zm4.49-.754-2.673-7.677,14.155-7.2,1.337,3.873Z" transform="translate(-1202.9 -491.2)" fill="#fff"/>
          </g>
          <path id="Path_544" data-name="Path 544" d="M1245.774,696.334a1.374,1.374,0,0,0-1.851-.617,37.2,37.2,0,0,1-14.224,4.01c.034.96.069,1.954.1,2.948a23.185,23.185,0,0,1,12.818,7.026,1.389,1.389,0,0,0,1.028.48,1.269,1.269,0,0,0,.891-.343,1.367,1.367,0,0,0,.137-1.954,26.976,26.976,0,0,0-8.808-6.306,43.39,43.39,0,0,0,9.288-3.393A1.374,1.374,0,0,0,1245.774,696.334Z" transform="translate(-878.325 -527.267)" fill="#fff"/>
          <path id="Path_545" data-name="Path 545" d="M337.623,415.166a101.742,101.742,0,0,1,6.786-9.939,16.564,16.564,0,0,0,.343-3.222,16.221,16.221,0,0,0-.925-5.347l4.284-4.867a10.567,10.567,0,0,0,4.97,1.234,9.862,9.862,0,0,0,2.673-.343c2.3-2.194,4.7-4.284,7.232-6.341a10.865,10.865,0,0,0-1.1-10.179h0l1.234-1.405a4.375,4.375,0,0,0-.377-6.135L350.03,357.244a4.22,4.22,0,0,0-3.119-1.1,4.279,4.279,0,0,0-2.982,1.44l-.24.274L333,348.3a1.187,1.187,0,0,0-.891-.308,1.353,1.353,0,0,0-.857.411l-2.708,3.085a1.244,1.244,0,0,0,.1,1.748,1.214,1.214,0,0,0,1.748-.1l1.885-2.125,9.768,8.74-8.191,9.288a1.836,1.836,0,0,1-2.194.446l-13.47-9.185c-.034-.034-.069-.034-.1-.069a4.34,4.34,0,0,0-5.244.96l-13.709,15.56a4.342,4.342,0,0,0-.171,5.518l14.532,18.473.1.1c-.034.377-.034.754-.034,1.131a15.55,15.55,0,0,0,24.06,13.2Zm15.492-24.608a8.294,8.294,0,1,1,8.226-8.294A8.287,8.287,0,0,1,353.115,390.558Zm-52.233-9.8a1.866,1.866,0,0,1,.1-2.4l13.709-15.56a1.836,1.836,0,0,1,2.194-.446l13.47,9.185c.034.034.069.034.1.069a4.348,4.348,0,0,0,5.244-.96l8.98-10.214h0l1.028-1.165a1.869,1.869,0,0,1,1.268-.617,1.8,1.8,0,0,1,1.337.48l12.716,11.379a1.9,1.9,0,0,1,.171,2.673l-1.028,1.165a10.676,10.676,0,0,0-17.857,7.986,10.9,10.9,0,0,0,3.667,8.123l-3.393,3.839a15.577,15.577,0,0,0-28.584,3.427ZM316,401.971a13.161,13.161,0,1,1,13.161,13.264A13.231,13.231,0,0,1,316,401.971Z" transform="translate(-265.99 -298.812)" fill="#fff"/>
          <path id="Path_546" data-name="Path 546" d="M340.1,617.532a10.792,10.792,0,1,0-1.234,9.494C339.144,623.8,339.521,620.651,340.1,617.532Zm-10.076,11.824a8.295,8.295,0,1,1,8.226-8.294A8.287,8.287,0,0,1,330.028,629.356Z" transform="translate(-279.952 -471.223)" fill="#fff"/>
        </g>
        <g id="Group_368" data-name="Group 368" transform="translate(58.712 44.105)">
          <g id="Group_364" data-name="Group 364" transform="translate(0 10.591)">
            <path id="Path_547" data-name="Path 547" d="M512.723,578.31c-36.5,0-70.844-11.1-96.686-31.258a109.693,109.693,0,0,1-29.407-34.034,86.131,86.131,0,0,1,0-83.628,109.693,109.693,0,0,1,29.407-34.034C441.879,375.2,476.222,364.1,512.723,364.1s70.844,11.1,96.686,31.258a109.693,109.693,0,0,1,29.407,34.034,86.132,86.132,0,0,1,0,83.628,109.692,109.692,0,0,1-29.407,34.034C583.567,567.205,549.224,578.31,512.723,578.31Zm0-211.4c-35.884,0-69.61,10.9-94.972,30.675-25.225,19.673-39.14,45.824-39.14,73.62s13.915,53.947,39.14,73.654c25.362,19.776,59.088,30.675,94.972,30.675s69.61-10.9,94.972-30.675c25.26-19.707,39.141-45.858,39.141-73.654s-13.915-53.947-39.141-73.654C582.333,377.775,548.608,366.91,512.723,366.91Z" transform="translate(-375.8 -364.1)" fill="#fff"/>
          </g>
          <g id="Group_365" data-name="Group 365" transform="translate(18.919 25.5)">
            <path id="Path_548" data-name="Path 548" d="M567.923,621.81c-36.5,0-70.844-11.1-96.686-31.258a109.693,109.693,0,0,1-29.407-34.034,86.132,86.132,0,0,1,0-83.628,109.693,109.693,0,0,1,29.407-34.034C497.08,418.7,531.422,407.6,567.923,407.6s70.844,11.1,96.686,31.258a109.694,109.694,0,0,1,29.407,34.034,86.132,86.132,0,0,1,0,83.628,109.693,109.693,0,0,1-29.407,34.034C638.767,610.705,604.424,621.81,567.923,621.81Zm0-211.434c-35.885,0-69.61,10.9-94.972,30.675-25.225,19.707-39.106,45.858-39.106,73.654s13.881,53.947,39.14,73.654c25.362,19.776,59.088,30.675,94.972,30.675s69.61-10.9,94.972-30.675c25.26-19.707,39.14-45.858,39.14-73.654s-13.915-53.947-39.14-73.654C637.533,421.275,603.808,410.376,567.923,410.376Z" transform="translate(-431 -407.6)" fill="#fff"/>
          </g>
          <g id="Group_366" data-name="Group 366" transform="translate(0 28.036)">
            <path id="Path_549" data-name="Path 549" d="M512.723,629.21c-36.5,0-70.844-11.1-96.686-31.258a109.693,109.693,0,0,1-29.407-34.034,86.131,86.131,0,0,1,0-83.628,109.693,109.693,0,0,1,29.407-34.034C441.879,426.1,476.222,415,512.723,415s70.844,11.1,96.686,31.258a109.694,109.694,0,0,1,29.407,34.034,86.132,86.132,0,0,1,0,83.628,109.693,109.693,0,0,1-29.407,34.034C583.567,618.14,549.224,629.21,512.723,629.21Zm0-211.4c-35.884,0-69.61,10.9-94.972,30.675-25.225,19.673-39.14,45.858-39.14,73.654s13.915,53.947,39.14,73.62c25.362,19.776,59.088,30.675,94.972,30.675s69.61-10.9,94.972-30.675c25.26-19.707,39.141-45.858,39.141-73.654s-13.915-53.947-39.141-73.654C582.333,428.709,548.608,417.81,512.723,417.81Z" transform="translate(-375.8 -415)" fill="#fff"/>
          </g>
          <g id="Group_367" data-name="Group 367" transform="translate(18.988)">
            <path id="Path_550" data-name="Path 550" d="M555.1,547.821a156.631,156.631,0,0,1-47.812-7.026c-17-5.45-31.7-13.915-43.733-25.191-20.873-19.536-32.354-46.269-32.354-75.3a86.719,86.719,0,0,1,10.831-41.814,109.693,109.693,0,0,1,29.407-34.034C497.28,344.3,531.622,333.2,568.123,333.2s70.844,11.1,96.686,31.258a109.693,109.693,0,0,1,29.407,34.034,87.1,87.1,0,0,1,10.83,41.814,82.957,82.957,0,0,1-10.865,41.128c-6.855,12.236-16.76,23.306-29.441,32.868-25.02,18.885-59.293,30.641-96.515,33.108C563.736,547.684,559.383,547.821,555.1,547.821Zm12.955-211.845c-35.885,0-69.61,10.9-94.972,30.675-25.26,19.707-39.141,45.858-39.141,73.654a99.183,99.183,0,0,0,31.463,73.243,111.554,111.554,0,0,0,42.7,24.574c17.891,5.758,38.009,7.917,59.842,6.478,36.673-2.433,70.4-13.984,95.006-32.526,12.373-9.322,22.038-20.119,28.687-32.012a80.569,80.569,0,0,0,10.488-39.757c0-27.8-13.915-53.947-39.14-73.654C637.664,346.875,603.939,335.976,568.055,335.976Z" transform="translate(-431.2 -333.2)" fill="#fff"/>
          </g>
        </g>
      </g>
    </g>
  </g>
</svg>
