<?xml version="1.0" encoding="utf-8"?>
<!-- Generator: Adobe Illustrator 25.2.0, SVG Export Plug-In . SVG Version: 6.00 Build 0)  -->
<svg version="1.1" id="Layer_1" xmlns="http://www.w3.org/2000/svg" xmlns:xlink="http://www.w3.org/1999/xlink" x="0px" y="0px"
	 viewBox="0 0 1151.1 324.5" style="enable-background:new 0 0 1151.1 324.5;" xml:space="preserve">
<style type="text/css">
	.st0{fill:#FFFFFF;}
	.st1{opacity:0.6;fill:#FFFFFF;}
	.st2{opacity:0.6;}
</style>
<g id="Layer_2_1_">
	<g>
		<path class="st0" d="M283.2,107.5c0-5.2,1-10.4,2.9-15.3c1.9-5,4.8-9.6,8.4-13.6c3.8-4.1,8.3-7.5,13.4-9.8
			c5.7-2.5,11.8-3.8,18-3.7c8,0,14.9,1.7,20.8,5.2c5.6,3.1,10.1,7.8,13.1,13.4l-15.1,10.6c-1.1-2.8-2.8-5.2-5.1-7.1
			c-2.1-1.7-4.4-2.9-7-3.5c-2.4-0.7-4.8-1-7.3-1c-3.4-0.1-6.8,0.7-9.8,2.2c-2.8,1.4-5.1,3.5-7,5.9c-1.8,2.5-3.2,5.3-4.1,8.3
			s-1.3,6-1.3,9.1c0,3.3,0.5,6.6,1.6,9.7c1,3,2.5,5.8,4.5,8.3c1.9,2.4,4.4,4.3,7.1,5.7c2.9,1.4,6,2.1,9.2,2.1c2.5,0,5-0.4,7.3-1.2
			c2.5-0.8,4.9-2.1,6.9-3.8c2.2-1.8,3.9-4.1,4.9-6.8l16.1,9.5c-1.7,4.2-4.6,7.9-8.3,10.7c-3.9,3-8.3,5.3-13,6.8
			c-4.6,1.5-9.5,2.3-14.3,2.3c-5.9,0.1-11.7-1.2-17-3.8c-5.1-2.4-9.6-5.9-13.3-10.1c-3.7-4.2-6.6-9-8.6-14.2
			C284.2,118.4,283.2,113,283.2,107.5z"/>
	</g>
	<g>
		<path class="st0" d="M390.9,65.8h21.2l29.3,85.2h-20.2l-5.8-19.1h-28l-5.8,19.1h-20.2L390.9,65.8z M411.3,118.3l-9.9-32.8
			l-9.9,32.8H411.3z"/>
	</g>
	<g>
		<path class="st0" d="M517,151v-50.8l-18.4,37h-10.8l-18.4-37V151h-19.7V65.8h21.4l22.1,44.5l22.2-44.5h21.2V151H517z"/>
	</g>
	<g>
		<path class="st0" d="M553,151V65.8h36.4c3.9,0,7.7,0.8,11.2,2.5c3.3,1.6,6.3,3.8,8.8,6.6c2.5,2.7,4.4,5.9,5.8,9.3
			c1.3,3.4,2,6.9,2,10.6c0,4.8-1.2,9.6-3.4,13.9s-5.5,8-9.5,10.8c-4.2,2.8-9.2,4.3-14.3,4.1h-17.3V151H553z M572.7,106.4h16.1
			c1.5,0,3-0.5,4.2-1.3c1.4-1,2.5-2.4,3.1-4c0.9-2.1,1.3-4.3,1.2-6.5c0.1-2.3-0.4-4.5-1.4-6.6c-0.8-1.6-2-2.9-3.5-3.8
			c-1.3-0.8-2.8-1.2-4.4-1.2h-15.4L572.7,106.4z"/>
	</g>
	<g>
		<path class="st0" d="M638.8,65.8l20,62.2l19.8-62.2h20.8l-31,85.2h-19.2L618,65.8H638.8z"/>
	</g>
	<g>
		<path class="st0" d="M707.3,151V65.8H727V151H707.3z"/>
	</g>
	<g>
		<path class="st0" d="M779.9,151.5c-6.8,0-12.6-1.1-17.4-3.4c-4.6-2.1-8.6-5.3-11.7-9.4c-3-4-5.3-8.6-6.6-13.5
			c-1.4-5.2-2.1-10.6-2.1-16V65.8h19.7v43.5c0,3.1,0.3,6.2,1,9.3c0.6,2.8,1.6,5.5,3.1,8c5.1,7.3,14.8,9.7,22.7,5.4
			c2.3-1.4,4.1-3.3,5.4-5.7c1.4-2.5,2.4-5.2,3-8c0.7-3,1-6,1-9.1V65.8h19.7v43.5c0,5.6-0.7,11.2-2.2,16.5c-1.4,4.9-3.7,9.5-6.8,13.5
			c-3.1,3.9-7.1,7-11.7,9.1C791.6,150.6,785.7,151.7,779.9,151.5z"/>
	</g>
	<g>
		<path class="st0" d="M830,151v-19.6h15.7V151H830z"/>
	</g>
	<g>
		<path class="st0" d="M855,107.5c0-5.2,1-10.4,2.9-15.3c1.9-5,4.8-9.6,8.4-13.6c3.8-4.1,8.3-7.5,13.4-9.8c5.7-2.5,11.8-3.8,18-3.7
			c8,0,14.9,1.7,20.8,5.2c5.6,3.1,10.1,7.8,13.1,13.4l-15.1,10.6c-1.1-2.8-2.8-5.2-5.1-7.1c-2.1-1.7-4.4-2.9-7-3.5
			c-2.4-0.7-4.8-1-7.2-1c-3.4-0.1-6.8,0.7-9.8,2.2c-2.8,1.4-5.1,3.5-7,5.9c-1.8,2.5-3.2,5.3-4.1,8.3c-0.9,3-1.3,6-1.3,9.1
			c0,3.3,0.6,6.6,1.6,9.8c1,3,2.5,5.8,4.5,8.3c1.9,2.4,4.4,4.3,7.2,5.7c2.9,1.4,6,2.1,9.2,2.1c2.5,0,5-0.4,7.3-1.2
			c2.5-0.8,4.9-2.1,6.9-3.8c2.2-1.8,3.8-4.1,4.8-6.8l16.1,9.5c-1.7,4.2-4.6,7.9-8.3,10.7c-3.9,3-8.3,5.3-13,6.8
			c-4.6,1.5-9.5,2.3-14.4,2.3c-5.9,0.1-11.7-1.2-17-3.8c-5.1-2.4-9.6-5.9-13.3-10.1c-3.7-4.2-6.6-9-8.7-14.2
			C856,118.4,855,113,855,107.5z"/>
	</g>
	<g>
		<path class="st0" d="M962.6,65.8h21.2l29.3,85.2H993l-5.8-19.1h-28l-5.8,19.1h-20.2L962.6,65.8z M983.1,118.3l-9.9-32.8l-9.9,32.8
			H983.1z"/>
	</g>
	<g>
		<path class="st0" d="M1078.6,83h-25.9v68H1033V83h-26V65.8h71.6V83z"/>
	</g>
	<g>
		<path class="st0" d="M345.1,231.6c0.1,3.1-0.8,6.1-2.5,8.6s-4.1,4.4-6.8,5.7c-2.9,1.4-6.1,2.1-9.4,2.1h-30.3v-63.9h31.8
			c2.8-0.1,5.5,0.8,7.8,2.4c2.2,1.6,3.9,3.7,5,6.1c1.2,2.4,1.8,5.1,1.8,7.8c0,3.1-0.8,6.1-2.4,8.8s-3.9,4.8-6.8,6.1
			c3.5,1,6.5,3.1,8.7,6C344.1,224.3,345.2,227.9,345.1,231.6z M304.2,191.2v21.3h20.3c1.8,0,3.6-0.5,5.1-1.4c1.5-1,2.7-2.3,3.5-3.9
			c0.9-1.6,1.3-3.5,1.3-5.3c0-1.9-0.4-3.8-1.2-5.4c-0.8-1.5-1.9-2.9-3.3-3.8c-1.4-1-3.1-1.5-4.8-1.4h-20.9V191.2z M336.9,230.2
			c0-1.9-0.4-3.8-1.3-5.5c-0.8-1.6-2-3-3.5-4.1c-1.5-1-3.3-1.6-5.1-1.5h-22.9v22h22.2c1.9,0,3.8-0.5,5.4-1.5s2.9-2.4,3.8-4
			C336.5,234,336.9,232.1,336.9,230.2L336.9,230.2z"/>
	</g>
	<g>
		<path class="st0" d="M374.5,184.2h6.8l26.1,63.9h-8.6l-7.2-18.7h-27.5l-7.2,18.7h-8.6L374.5,184.2z M389.3,223.1L378,193.6
			l-11.4,29.5H389.3z"/>
	</g>
	<g>
		<path class="st0" d="M416,248.1v-63.9h8.1v63.9H416z"/>
	</g>
	<g>
		<path class="st0" d="M441.2,184.2l19.3,26.5l19.3-26.5h9.1L465,216.6l23.1,31.5H479l-18.5-25.6L442,248.1h-9.2l23.1-31.5
			L432,184.2H441.2z"/>
	</g>
	<g>
		<path class="st0" d="M514.4,215.6c0-8,2.9-15.7,8-21.7c2.6-3.1,5.9-5.6,9.6-7.4c4-1.9,8.4-2.8,12.9-2.7c5.2-0.1,10.3,1.2,14.7,3.9
			c3.9,2.4,7.1,5.9,9.1,10l-6.4,4.1c-2.1-4.8-6.2-8.4-11.2-9.8c-2.1-0.6-4.4-1-6.6-1c-3.3-0.1-6.5,0.7-9.4,2.2
			c-2.7,1.4-5,3.4-6.9,5.8c-1.9,2.4-3.3,5.2-4.2,8.1c-0.9,2.9-1.4,5.9-1.4,9c0,3.3,0.6,6.5,1.7,9.5c1,3,2.6,5.7,4.6,8.1
			c1.9,2.3,4.3,4.2,7,5.6c2.7,1.4,5.8,2.1,8.8,2.1c2.3,0,4.6-0.4,6.8-1.2c2.4-0.8,4.6-2,6.6-3.6c2.1-1.7,3.8-4,4.9-6.5l6.8,3.7
			c-1.3,3.2-3.4,6-6.1,8.1c-2.8,2.2-5.9,3.9-9.2,5c-3.2,1.1-6.6,1.7-10,1.7c-4.2,0-8.3-0.9-12.1-2.8c-3.6-1.9-6.9-4.4-9.5-7.6
			c-2.7-3.2-4.8-6.7-6.2-10.6C515.2,223.7,514.4,219.7,514.4,215.6z"/>
	</g>
	<g>
		<path class="st0" d="M598.5,184.2h6.8l26.1,63.9h-8.6l-7.2-18.7h-27.5l-7.2,18.7h-8.6L598.5,184.2z M613.2,223.1l-11.3-29.5
			l-11.3,29.5H613.2z"/>
	</g>
	<g>
		<path class="st0" d="M695.2,248.1v-48.8l-21.1,37.5h-5L648,199.3v48.8h-8v-63.9h8.5l23.1,41.5l23.2-41.5h8.5v63.9H695.2z"/>
	</g>
	<g>
		<path class="st0" d="M718.6,248.1v-63.9h26.6c2.7,0,5.3,0.6,7.8,1.8c2.3,1.2,4.4,2.7,6.1,4.7c1.7,1.9,3.1,4.2,4,6.6
			c0.9,2.4,1.4,4.9,1.4,7.4c0,3.5-0.8,6.9-2.3,9.9c-1.5,3.1-3.8,5.7-6.6,7.6c-2.9,2-6.4,3-9.9,2.9h-19v23H718.6z M726.7,218h18.6
			c2.1,0,4.1-0.6,5.8-1.8c1.7-1.3,3-2.9,3.9-4.9c0.9-2.1,1.4-4.4,1.4-6.7c0-2.4-0.5-4.7-1.6-6.8c-1-1.9-2.4-3.5-4.2-4.7
			c-1.7-1.1-3.7-1.7-5.8-1.7h-18.1L726.7,218z"/>
	</g>
	<path class="st1" d="M117.2,61.9C93,71.6,73.7,89.7,62.3,113c6.6-0.2,15.2-0.5,23.6-0.6c16.7-0.3,40-8.2,48.1-13.2
		c1.5-0.9,2.8-1.8,4.1-2.6c6.8-4.5,12.2-8.1,21.6-5.7c9.4,2.3,25.6,4.1,34.7,3.8c9.1-0.3,14.5,10.1,16.5,15.2c2.3,0.7,4.9,2,8.6,4.3
		c4.5,2.9,13.5,2.2,20.7,1.6c4.1-0.3,8-0.6,11-0.3c0.3,0,0.6,0.1,0.9,0.1C228.8,64.8,169.4,40.8,117.2,61.9z"/>
	<g class="st2">
		<path class="st0" d="M229.8,234c-26.9,0.5-51.9,11.5-68.5,29.8c0,0,0,0,0,0c3.4-0.2,6.9-0.5,10.3-1c0,0,0,0,0.1,0
			c0.8-0.1,1.6-0.2,2.4-0.4c0.1,0,0.1,0,0.2,0c0.8-0.1,1.5-0.3,2.3-0.4c0.1,0,0.2,0,0.3-0.1c0.7-0.1,1.4-0.3,2.1-0.5
			c0.1,0,0.3-0.1,0.4-0.1c0.9-0.2,1.7-0.4,2.6-0.6c1.1-0.3,2.2-0.6,3.3-0.9c0.4-0.1,0.7-0.2,1.1-0.3c0.7-0.2,1.4-0.4,2.2-0.7
			c0.4-0.1,0.9-0.3,1.3-0.4c0.6-0.2,1.3-0.4,1.9-0.7c0.5-0.2,0.9-0.3,1.3-0.5c0.6-0.2,1.2-0.5,1.8-0.7c0.5-0.2,0.9-0.4,1.4-0.6
			c0.6-0.2,1.2-0.5,1.8-0.7c0.5-0.2,0.9-0.4,1.4-0.6c0.6-0.3,1.1-0.5,1.7-0.8c0.5-0.2,0.9-0.4,1.4-0.7c0.6-0.3,1.1-0.6,1.7-0.8
			c0.4-0.2,0.9-0.5,1.3-0.7c0.5-0.3,1.1-0.6,1.6-0.9c0.4-0.2,0.9-0.5,1.3-0.7c0.5-0.3,1.1-0.6,1.6-0.9c0.4-0.3,0.9-0.5,1.3-0.8
			c0.5-0.3,1.1-0.7,1.6-1c0.4-0.3,0.8-0.5,1.2-0.8c0.5-0.3,1.1-0.7,1.6-1.1c0.4-0.3,0.8-0.5,1.2-0.8c0.5-0.4,1-0.8,1.6-1.1
			c0.4-0.3,0.8-0.6,1.1-0.8c0.5-0.4,1.1-0.8,1.6-1.2c0.4-0.3,0.7-0.5,1.1-0.8c0.6-0.4,1.1-0.9,1.6-1.4c0.3-0.3,0.6-0.5,0.9-0.8
			c0.6-0.5,1.2-1.1,1.8-1.6c0.2-0.2,0.4-0.4,0.7-0.6C228.2,235.6,229,234.8,229.8,234C229.8,234,229.8,234,229.8,234z"/>
		<path class="st0" d="M231.9,201.4c-4.7,0-9,0.2-13.1,0.6c0,0.2-0.1,0.3-0.1,0.5c-0.1,0.3-0.2,0.7-0.3,1c-0.1,0.2-0.1,0.4-0.2,0.5
			c-0.1,0.3-0.3,0.6-0.4,0.9c-0.1,0.1-0.2,0.3-0.2,0.4c-0.3,0.4-0.5,0.8-0.8,1.2c-1.8,2.1-5.2,4.6-11.7,4.2c-0.2,0-0.5,0-0.7-0.1
			c-0.5,3.3-1.7,5.8-3.7,7.6c-2.9,2.7-6.5,2.9-9.2,2.8c-0.5,0-1,0-1.4-0.1l-0.6,0c-0.8,0-1.7-0.3-2.7-0.7c-0.9,1.9-2.1,2.9-4.1,3.9
			c-2.1,1.2-4.4,1.1-8.1,1.1c-0.1,0-0.3,0-0.4,0c-1,0-2.2,0-3.5,0.1c0,0,0,0,0,0c-2.5,0-5.7-0.9-9.7-2.6c-1.2,1-2.8,2.3-4.4,3.3
			c-1.5,1-3,1.8-4.3,2c-0.4,0.1-0.7,0.1-1,0.1c0,0-0.1,0-0.1,0c-0.3,0-0.6,0-0.9,0c0,0-0.1,0-0.1,0c-0.3,0-0.6-0.1-0.8-0.1
			c0,0-0.1,0-0.1,0c-0.3,0-0.5-0.1-0.8-0.2c0,0,0,0,0,0c-11.3,8.1-20.9,18-28.8,29.4c0,0,0,0,0,0c1.4,0.5,2.7,1,4.1,1.5c0,0,0,0,0,0
			c1.3,0.4,2.7,0.9,4,1.2c0.1,0,0.2,0.1,0.4,0.1c1.3,0.4,2.7,0.7,4,1.1c0.1,0,0.1,0,0.2,0c2.7,0.7,5.5,1.2,8.3,1.7
			c0.1,0,0.2,0,0.2,0c1.4,0.2,2.7,0.4,4.1,0.6c0.1,0,0.2,0,0.3,0c2.8,0.3,5.7,0.5,8.5,0.6c18-22.5,47.2-35.9,78.5-35.9
			c1.2,0,2.3,0,3.5,0.1c0,0,0,0,0,0c4.1-4.7,7.8-9.7,11-15.1c0.1-0.1,0.1-0.3,0.2-0.4c0.5-0.9,1.1-1.8,1.6-2.8
			c0.1-0.2,0.2-0.4,0.3-0.5c0.5-0.9,1-1.8,1.5-2.8c0.1-0.2,0.2-0.3,0.2-0.5c0.5-1.1,1.1-2.2,1.6-3.3
			C245.1,201.9,238.4,201.4,231.9,201.4z"/>
		<path class="st0" d="M105.8,250.8c0.7,0.4,1.3,0.7,2,1.1c0.2,0.1,0.4,0.2,0.6,0.3c0.7,0.4,1.5,0.8,2.2,1.1
			c0.1,0.1,0.2,0.1,0.4,0.2c0.9,0.4,1.8,0.8,2.6,1.2c6.8-10.1,15-19,24.3-26.8c-0.5-0.1-1-0.2-1.5-0.4c0,0-0.1,0-0.1,0
			c-0.5-0.1-0.9-0.3-1.3-0.5c0,0-0.1,0-0.1-0.1c-0.4-0.2-0.8-0.3-1.2-0.5c0,0-0.1,0-0.1,0c-0.4-0.2-0.8-0.4-1.2-0.6
			c-3.3,1.8-7.8,0.3-10.1-0.6c-4.2-1.5-6.3-5-7.2-8.1c-1,0.5-2.1,0.9-3.2,1.1c-0.4,0.1-0.7,0.1-1.1,0.1c-0.3,0-0.6,0-0.9,0
			c0,0,0,0,0,0c-7.1,6.7-13.6,14.2-19.2,22.2c1.1,0.9,2.2,1.8,3.4,2.6c0.4,0.3,0.8,0.6,1.2,0.9c0.9,0.6,1.7,1.2,2.6,1.8
			c0.4,0.3,0.8,0.5,1.2,0.8c1.2,0.8,2.5,1.6,3.8,2.4c0.8,0.5,1.7,1,2.5,1.5C105.3,250.6,105.6,250.7,105.8,250.8z"/>
		<path class="st0" d="M85.9,236.7C85.9,236.7,85.9,236.7,85.9,236.7c2.2-3.1,4.6-6.2,7-9.2c-6.7-2.9-13.7-5-21-6.2c0,0,0,0,0,0
			c1,1.4,2.1,2.7,3.2,4.1c0,0,0,0,0,0c1.1,1.3,2.2,2.6,3.3,3.8c0,0,0.1,0.1,0.1,0.1c1.1,1.2,2.3,2.4,3.4,3.6
			c0.1,0.1,0.1,0.1,0.2,0.2C83.4,234.3,84.7,235.5,85.9,236.7z"/>
		<path class="st0" d="M57.5,193.8c0.3,1,0.7,2,1.1,2.9c0.2,0.5,0.4,0.9,0.5,1.4c0.5,1.3,1,2.5,1.6,3.8c0.2,0.5,0.5,1,0.7,1.4
			c0.4,0.8,0.7,1.6,1.1,2.4c0.3,0.6,0.6,1.3,1,1.9c0.3,0.6,0.7,1.3,1,1.9c0.4,0.6,0.7,1.3,1.1,1.9c0.6,1.1,1.2,2.1,1.9,3.1
			c10.3,1.1,20.2,3.9,29.6,8.2c2.1-2.4,4.3-4.7,6.6-6.9c-0.3-0.3-0.6-0.5-0.9-0.8c0,0,0,0,0,0c-0.3-0.3-0.5-0.6-0.7-0.9
			c0,0,0-0.1-0.1-0.1c-0.2-0.3-0.4-0.6-0.6-0.9c0,0-0.1-0.1-0.1-0.1c-0.2-0.3-0.4-0.6-0.5-0.8c0-0.1-0.1-0.1-0.1-0.2
			c-0.2-0.3-0.3-0.5-0.4-0.8c0-0.1-0.1-0.1-0.1-0.2c-0.1-0.2-0.2-0.5-0.3-0.7c0-0.1-0.1-0.1-0.1-0.2c-0.1-0.2-0.2-0.5-0.3-0.7
			c0-0.1-0.1-0.1-0.1-0.2c-0.1-0.3-0.2-0.6-0.3-0.8l-0.1-0.3l0-0.3c-0.3-5.1,1-7.5,2.7-10.3c-0.5-0.2-1-0.5-1.6-0.8
			c-3.3,1-6.6,2.2-9.8,3.6c-3.2,1.5-11.3,3.1-16.6,0.5c-2.4-1.2-4-3.2-4.6-5.7c-0.5-2.4-0.3-4.8,0.7-6.9c-2.1,0-4.3,0-6.6,0
			c-2.6,0-5.2,0-7.6,0.1c0.4,1.4,0.9,2.8,1.3,4.2C57.2,192.9,57.4,193.4,57.5,193.8z"/>
		<path class="st0" d="M234.9,193.1c0,0.2-0.1,0.4-0.1,0.5c0,0.1-0.1,0.2-0.1,0.3c-0.1,0.2-0.2,0.5-0.2,0.7c0,0,0,0.1,0,0.1
			c-0.1,0.2-0.2,0.5-0.3,0.7c0,0,0,0,0,0c6.6,0.1,13.4,0.6,20.2,1.6c0.5-1.3,1-2.5,1.4-3.8l-20.6-1
			C235.1,192.5,235,192.8,234.9,193.1z"/>
	</g>
	<path class="st0" d="M234.5,186.1c-0.8-2.7-2.4-6-5-9.7c0,0,0,0,0,0c-6.7-9.7-16.7-22.1-24.5-28.2c-4.3-3.3-6.9-6.3-9.4-9.1
		c-1.8-2-3.5-4-5.6-5.8c0,0,0,0,0,0c-0.5-0.5-1.1-1-1.7-1.5c-4.8-4.3-12.1-10.9-25.1-9.9l-0.3,0c-2,0.4-4,0.6-5.9,0.8
		c-0.3,0-0.7,0.1-1,0.1c-0.1-3.1-2.1-5.9-3.6-7.3l-4.1,4.4c0,0,2.5,2.5,1.4,4.2L149,125c-0.6,0.8-1.1,1.4-1.4,1.9
		c-1,1.3-1.6,2.1-4,5.9c-2.6,4.2-12.1,8.8-18.2,6.3c-0.8-0.3-2-1-2.2-1.9c0-0.1,0-0.1,0-0.2c0-1.1,1-2.6,1.6-3.1
		c5.6-4.4,9.9-10.4,12.6-17.2c2.8-7.1,3.8-7.3,6.5-7.9c0.4-0.1,0.8-0.2,1.2-0.3c4.4-0.9,16.5-3.3,21.4-4c0.5-0.1,0.9-0.1,1.2-0.1
		c0.2,0,0.4,0,0.6-0.1c2.8-0.2,4.8,0.2,12.4,3.6c9.1,4.1,15.3,6,21.5,6.7c1.2,0.1,2.1,0.2,3,0.3c1,0.1,1.9,0.1,2.7,0.3
		c1.7,0.3,3.7,1.1,8.1,3.9c0,0,0,0,0,0c0,0,0,0,0,0c0,0,0.1,0,0.1,0.1c6.2,3.8,15.8,3.1,24.3,2.4c3.3-0.3,6.5-0.5,9-0.4
		c0.2,0,0.4,0,0.6,0c0.1,0,0.3,0,0.4,0c2.2,0.3,4.1,0.4,6,0.5l4.9,0.5l-1.9-4.6c-11.1-27.5-32.2-49-59.5-60.6
		c-27.3-11.6-57.5-11.9-85-0.8C87.8,67.3,66.4,88.1,54.7,115l-1.9,4.4l4.8-0.2c6.9-0.3,17.7-0.6,28.3-0.8c4.7-0.1,9.9-0.7,15.4-1.8
		c13.8-2.7,28.6-7.8,35.8-12.4c0.7-0.4,1.3-0.8,1.9-1.2c0.8-0.5,1.5-1,2.2-1.5c6.4-4.3,10-6.6,16.8-4.9c0,0,0,0,0,0
		c2.6,0.7,5.6,1.3,8.9,1.8c-0.3,0-0.7,0.1-1.2,0.1c-5.3,0.7-18.2,3.2-22,4.1c-0.3,0.1-0.7,0.1-1,0.2c-4.9,1-7.5,2.3-10.9,11.6
		c0,0,0,0,0,0c0,0,0,0,0,0c0,0,0,0,0,0c0,0,0,0,0,0c0,0,0,0,0,0c-2.3,5.7-6,10.8-10.9,14.7l-0.1,0.1c-1.1,1-3.8,4.1-3.6,7.8
		c0,0.4,0,0.7,0.1,1.1c0.3,1.9,1.6,4.6,5.7,6.3c8.6,3.7,21.3-1.7,25.6-8.7c0,0,0,0,0,0c2-3.3,2.6-4,3.4-5.1c0.4-0.5,0.8-1,1.4-1.8
		c1.5,0,3-0.1,4.5-0.3c1.9-0.2,3.8-0.5,5.7-0.8c10.3-0.7,15.9,4.3,20.4,8.4c0.6,0.6,1.3,1.1,1.8,1.6c1.8,1.5,3.2,3.2,4.9,5.1
		c2.5,2.9,5.4,6.2,10.3,10c7.4,5.8,17.1,18,23.3,26.8c0,0,0,0,0,0c1.8,2.6,4.3,6.7,4.6,10c0.1,1.6-0.2,3.1-1.4,4.2
		c-2.1,1.9-4,1.8-9.4-0.4c-2-0.8-6.2-4.7-10.2-8.6c-0.9-0.8-1.7-1.7-2.5-2.4c-3.8-3.7-7.4-7.3-10.2-9.4c-3.5-2.7-10.8-8.3-10.6-12.1
		l-6-0.3c-0.4,6.6,6.5,12.3,13,17.2c2.5,1.9,6,5.4,9.5,8.8c0.7,0.7,1.4,1.4,2.1,2c3.6,3.5,6.9,6.7,9.7,8.7c0.3,2-0.2,3.9-1.2,5.1
		c-1.6,2-4.5,2.2-6.7,2.1c-7.2-0.4-15.7-9.1-22.5-16.1c-1.3-1.3-2.6-2.6-3.8-3.8c0,0,0,0,0,0c0,0,0,0,0,0c0,0-0.1-0.1-0.1-0.1
		c0,0-0.1-0.1-0.1-0.1c-1.3-1.3-2.4-2.3-3.3-3.3c-4.2-4.2-4.9-5-5-5l-1.8,1.5l-2.9,2.1c0,0,0,0,0,0.1l0,0c0.2,0.3,0.9,1,1.8,2
		c1.2,1.2,2.9,3,5.2,5.2c0.6,0.6,1.2,1.2,1.7,1.7c0,0,0,0,0,0c0.1,0.1,0.2,0.2,0.3,0.3c1.2,1.2,2.4,2.4,3.7,3.8
		c5.8,5.9,12.7,12.9,19.8,16.1c-0.2,1.8-0.8,3.7-1.9,4.8c-1,1-2.5,1.2-4.1,1.2c-0.7,0-1.4,0-2-0.1l-0.6,0
		c-2.9-0.4-15.5-10.2-19.6-13.5c-0.8-0.7-1.6-1.3-2.3-1.8c-5-3.9-7.4-10.2-7.4-10.3l-5.6,2.1c0.1,0.3,3,8,9.4,12.9c0,0,0,0,0,0
		c0.7,0.6,1.5,1.2,2.5,1.9c6.1,4.8,11,8.5,14.8,11c-0.3,0.8-0.7,1-1.6,1.4l-0.1,0c-0.8,0.3-2,0.4-4.7,0.4c-0.3,0-0.7,0-1,0
		c-1,0-2.1,0-3.5,0c-1.8,0-5-1-8.9-2.8c-3-1.4-5.7-2.9-8.3-4.4c0-0.3,0-0.7,0-1c-0.4-8.3-4.5-11.6-8-12.8c-0.1-0.6-0.2-1.2-0.4-1.8
		c-0.7-2.8-1.9-4.9-3.5-6.4c-0.7-0.7-1.5-1.2-2.3-1.6c-2.6-1.2-5.6-1.1-8.9,0.4c-1.5,0.7-3.1,2-4.8,3.7c-0.9-4.2-3.3-7.7-7.7-8.5
		c-6.8-1.2-10.6,3.5-13.2,8.3c-6.1-3-20.6-9.7-28.9-10c-0.3-0.1-0.6-0.1-0.9-0.1c-6.3,0-17.1,0.1-23.1,0.2l-3.8,0.1l0.9,3.7
		c7.2,28.8,25.2,53,50.6,68.2c17.5,10.5,37,15.8,56.8,15.8c9.1,0,18.2-1.1,27.2-3.4c37.5-9.4,67.9-38.3,79.1-75.3l1.1-3.7
		L234.5,186.1z M203,108.7c-5.5-0.6-11.4-2.5-19.7-6.3c-2.7-1.2-4.8-2.1-6.6-2.7c6.4,0.7,12.9,1,17.8,0.9c0.3,0,0.5,0,0.8,0
		c0.1,0,0.2,0,0.2,0c0.2,0,0.4,0.1,0.6,0.1c0.1,0,0.2,0,0.3,0.1c0.2,0.1,0.4,0.2,0.7,0.3c0.1,0,0.2,0.1,0.2,0.1
		c0.2,0.1,0.4,0.2,0.6,0.3c0.1,0.1,0.2,0.1,0.3,0.2c0.1,0.1,0.3,0.2,0.4,0.3c0.1,0.1,0.2,0.2,0.4,0.3c0.1,0.1,0.2,0.2,0.4,0.3
		c0.2,0.2,0.4,0.4,0.7,0.6c0.1,0.1,0.2,0.2,0.3,0.3c0.1,0.1,0.3,0.3,0.4,0.5c0.1,0.1,0.2,0.2,0.2,0.3c0.1,0.2,0.3,0.3,0.4,0.5
		c0.1,0.1,0.1,0.2,0.2,0.2c0.3,0.3,0.5,0.7,0.7,1.1c0.1,0.1,0.1,0.2,0.2,0.3c0.1,0.2,0.2,0.4,0.4,0.6c0.1,0.1,0.1,0.2,0.2,0.4
		c0.1,0.2,0.2,0.4,0.3,0.5c0.1,0.2,0.2,0.3,0.3,0.5c0.1,0.1,0.2,0.3,0.2,0.4C203.5,108.8,203.2,108.8,203,108.7z M82.9,112.5
		c-0.1,0-0.2,0-0.4,0c-2,0-4.1,0.1-6.1,0.1c0,0,0,0,0,0c-1,0-2,0.1-3,0.1c0,0,0,0,0,0c-2,0.1-3.9,0.1-5.7,0.2c-0.1,0-0.1,0-0.2,0
		c-1.8,0.1-3.5,0.1-5.1,0.2c0,0-0.1,0-0.1,0c11.4-23.3,30.8-41.4,55-51.1c52.2-21,111.6,2.9,134.7,53.5c-0.3,0-0.6-0.1-0.9-0.1
		c-0.4,0-0.8-0.1-1.2-0.1c-2.9-0.1-6.3,0.1-9.9,0.4c-7.2,0.5-16.1,1.2-20.7-1.6c-3.4-2.1-5.7-3.4-7.8-4.1v-0.2l-0.8-0.1
		c0-0.1-0.1-0.2-0.1-0.2c0-0.1,0-0.1-0.1-0.2c-0.1-0.1-0.1-0.3-0.2-0.4c0,0,0-0.1,0-0.1c-2.3-5.3-7.6-14.4-16.1-14.1
		c-9.1,0.3-25.3-1.5-34.7-3.8c0,0,0,0-0.1,0c-9.3-2.4-14.7,1.2-21.4,5.7c-1.3,0.9-2.7,1.8-4.2,2.7c-0.8,0.5-1.7,1-2.7,1.5
		c-9.7,5-30.3,11.5-45.4,11.8C84.9,112.4,83.9,112.4,82.9,112.5z M144.3,204.3c1.4,1,2.7,2.9,2.9,7.1c0,0.6,0,1.3,0,2
		c-0.1,1.4-0.2,2.5-0.4,3.6l5.5,1.2c0.8,0.4,1.6,0.9,2.5,1.3c-0.8,0.6-1.6,1.2-2.2,1.6c-0.6,0.4-1.1,0.7-1.4,0.7
		c-0.4,0.1-0.8,0-1.6-0.2c-1.7-0.4-4.1-1-7.9,0.2c-1.8,0.5-3.9-0.1-5.5-1c0-0.1,0.1-0.2,0.1-0.3c0.3-1.1,0.5-1.9,0.7-2.6
		c0.3-1.3,0.5-1.9,0.9-2.7c0.4-0.8,1.1-1.7,1.8-2.7C141.2,210.3,143.2,207.5,144.3,204.3z M123.8,205.9L123.8,205.9
		c2.4-5.9,6.7-10.8,8.9-11.8c0,0,0,0,0,0c0.9-0.4,2.7-1,3.9-0.4c0.3,0.1,0.5,0.3,0.8,0.6c0.8,0.9,1.4,2.3,1.7,3.5
		c1,3.7-2,8-4.4,11.5c-0.8,1.1-1.5,2.2-2.1,3.1c0,0,0,0,0,0c-1,1.7-1.3,3-1.8,4.9c-0.1,0.5-0.3,1.1-0.5,1.8l0,0.1
		c0,0.2-0.1,0.3-0.1,0.4l-0.6,0.9c0,0,0,0,0,0c-0.1,0.2-1,0.7-5.4-0.8c-3.1-1.1-3.8-5-4-7C121.6,210.6,122.9,208.2,123.8,205.9z
		 M107,200.2c0.6-1.1,1.4-2.3,2.2-4c3.3-6.6,5.5-6.8,7.5-6.5c3,0.5,3.4,5.5,3,8.7c-0.6,4.4-4.2,13.1-8.9,13.8h0
		c-3.5,0.6-5.3-4.1-5.7-5.3C104.9,203.9,105.5,202.8,107,200.2z M76.9,188.8c0.2-0.1,0.4-0.3,0.6-0.5c4,0.6,9.5,2.6,14.6,4.7
		c-1.4,0.5-2.8,1.1-4.2,1.7l-0.1,0c-2.2,1-8.4,2.1-11.4,0.6c0,0,0,0,0,0c-1-0.5-1.2-1-1.3-1.6c0,0,0,0,0,0c0,0,0,0,0,0
		C74.6,191.8,75.3,189.9,76.9,188.8z M55.7,188.3c2.4,0,5,0,7.6-0.1c2.3,0,4.5,0,6.6,0c-1,2.1-1.2,4.5-0.7,6.9
		c0.5,2.5,2.1,4.5,4.6,5.7c5.3,2.6,13.4,1,16.6-0.5c3.2-1.4,6.5-2.6,9.8-3.6c0.5,0.3,1.1,0.5,1.6,0.8c-1.7,2.9-3,5.2-2.7,10.3l0,0.3
		l0.1,0.3c0.6,2.2,2.1,5.3,4.6,7.4c-2.3,2.2-4.5,4.5-6.6,6.9c-9.4-4.3-19.3-7-29.6-8.2C62.4,206.5,58.4,197.6,55.7,188.3z M72,221.3
		c7.2,1.2,14.2,3.3,21,6.2c-2.5,3-4.8,6-7,9.2C80.8,232,76.1,226.8,72,221.3z M102.6,249c-4.3-2.6-8.3-5.4-12.1-8.4
		c5.6-8,12.1-15.5,19.2-22.2c0.6,0,1.3,0,2-0.1c1.1-0.2,2.2-0.6,3.2-1.1c1,3.1,3,6.7,7.2,8.1c2.4,0.8,6.8,2.4,10.1,0.6
		c1.6,0.9,3.5,1.7,5.6,2.1c-9.3,7.7-17.5,16.7-24.3,26.8C109.8,253.1,106.2,251.2,102.6,249z M182.1,260.8
		c-6.9,1.7-13.8,2.7-20.7,3.1c16.6-18.3,41.6-29.3,68.5-29.8C216.7,246.8,200.3,256.2,182.1,260.8z M235.4,228.1
		c-1.2-0.1-2.3-0.1-3.5-0.1c-31.3,0-60.5,13.4-78.5,35.9c-11.7-0.3-23.2-2.6-34.1-6.8c7.9-11.4,17.5-21.2,28.8-29.4
		c1.1,0.2,2.3,0.5,3.9,0.2c1.3-0.2,2.8-1,4.3-2c1.6-1,3.1-2.2,4.4-3.3c4,1.7,7.2,2.6,9.7,2.6c0,0,0,0,0,0c1.3,0,2.5-0.1,3.5-0.1
		c0.1,0,0.3,0,0.4,0c3.7,0.1,6,0.1,8.1-1.1c2-1,3.3-1.9,4.1-3.9c1,0.4,2,0.7,2.7,0.7l0.6,0c0.4,0,0.9,0,1.4,0.1
		c2.8,0.1,6.4-0.1,9.2-2.8c1.9-1.8,3.1-4.3,3.7-7.6c0.2,0,0.5,0,0.7,0.1c6.5,0.4,9.9-2.1,11.7-4.2c1.1-1.3,1.8-2.8,2.2-4.5
		c4.1-0.4,8.4-0.6,13.1-0.6c6.5,0,13.2,0.5,20,1.4C247.6,212,242.1,220.5,235.4,228.1z M254.3,197c-6.8-1-13.6-1.5-20.2-1.6
		c0.5-1,0.8-2,1-3.3l20.6,1C255.3,194.5,254.8,195.8,254.3,197z"/>
</g>
</svg>
