<svg id="_001-instagram" data-name="001-instagram" xmlns="http://www.w3.org/2000/svg" width="19.838" height="19.838" viewBox="0 0 19.838 19.838">
  <path id="Path_216" data-name="Path 216" d="M14.468,0H5.37A5.376,5.376,0,0,0,0,5.37v9.1a5.376,5.376,0,0,0,5.37,5.37h9.1a5.376,5.376,0,0,0,5.37-5.37V5.37A5.376,5.376,0,0,0,14.468,0ZM9.919,15.343a5.424,5.424,0,1,1,5.424-5.424A5.43,5.43,0,0,1,9.919,15.343Zm5.554-9.569a1.6,1.6,0,1,1,1.6-1.6A1.6,1.6,0,0,1,15.473,5.774Zm0,0" fill="#fff"/>
  <path id="Path_217" data-name="Path 217" d="M150.281,146.02a4.261,4.261,0,1,0,4.261,4.261A4.266,4.266,0,0,0,150.281,146.02Zm0,0" transform="translate(-140.362 -140.362)" fill="#fff"/>
  <path id="Path_218" data-name="Path 218" d="M388.432,96.3a.44.44,0,1,0,.44.44A.44.44,0,0,0,388.432,96.3Zm0,0" transform="translate(-372.959 -92.57)" fill="#fff"/>
</svg>
