<svg id="_002-facebook" data-name="002-facebook" xmlns="http://www.w3.org/2000/svg" width="19.838" height="19.838" viewBox="0 0 19.838 19.838">
  <g id="Group_119" data-name="Group 119" transform="translate(0 0)">
    <path id="Path_219" data-name="Path 219" d="M17.358,0H2.48A2.482,2.482,0,0,0,0,2.48V17.358a2.482,2.482,0,0,0,2.48,2.48H9.919V13.019H7.439v-3.1h2.48V7.439a3.719,3.719,0,0,1,3.72-3.72h2.48v3.1h-1.24c-.684,0-1.24-.064-1.24.62v2.48h3.1l-1.24,3.1h-1.86v6.819h3.72a2.482,2.482,0,0,0,2.48-2.48V2.48A2.482,2.482,0,0,0,17.358,0Z" transform="translate(0 0)" fill="#fff"/>
  </g>
</svg>
